<?xml version="1.0" encoding="utf-8"?>
<!-- Generator: Adobe Illustrator 23.0.0, SVG Export Plug-In . SVG Version: 6.00 Build 0)  -->
<svg version="1.1" id="Capa_1" xmlns="http://www.w3.org/2000/svg" xmlns:xlink="http://www.w3.org/1999/xlink" x="0px" y="0px"
	 viewBox="0 0 31.1 31.1" style="enable-background:new 0 0 31.1 31.1;" xml:space="preserve">
<style type="text/css">
	.st0{fill:#FFFFFF;}
</style>
<g>
	<g id="c100_arrow">
		<path class="st0" d="M0,15.6c0,1.7,1.4,3.1,3.1,3.1l17.5,0l-4.7,4.7c-1.3,1.3-1.3,3.3-0.1,4.5c1.2,1.2,3.2,1.1,4.5-0.1l9.9-9.9
			c1.3-1.3,1.4-3.3,0.1-4.5c0,0-0.1-0.1-0.1-0.1c0,0-0.1-0.1-0.1-0.1l-9.8-9.8C19,2.1,17,2.1,15.8,3.3c-1.2,1.2-1.2,3.2,0.1,4.5
			l4.8,4.8H3.1C1.4,12.5,0,13.9,0,15.6z"/>
	</g>
	<g id="Capa_1_46_">
	</g>
</g>
</svg>
