<svg xmlns="http://www.w3.org/2000/svg" xmlns:xlink="http://www.w3.org/1999/xlink" viewBox="0 0 389.12 216.02"><defs><style>.cls-1{fill:#0b2d4e;}.cls-2{fill:#061f33;}.cls-3{fill:#73b8d4;}.cls-4{fill:url(#linear-gradient);}</style><linearGradient id="linear-gradient" y1="169.21" x2="389.12" y2="169.21" gradientUnits="userSpaceOnUse"><stop offset="0" stop-color="#231f20" stop-opacity="0.05"/><stop offset="0.59" stop-color="#231f20" stop-opacity="0.1"/><stop offset="1" stop-opacity="0.05"/></linearGradient></defs><title>cat</title><g id="Layer_2" data-name="Layer 2"><g id="Layer_3" data-name="Layer 3"><path class="cls-1" d="M131.08,106.37c-30.18-1.43-60.26,3.42-90.09,8.26-9.42,1.52-19.39,6.75-12.29,18,3.89,6.18,12,8,19.22,8.82,31.16,3.57,63.17-.38,94.49-.33"/><path class="cls-2" d="M353.09,64.53c4.58,28-8.55,68.43-39.1,76.6-12.32,3.3-27.15,2.13-39.87,2q-23.22-.13-46.43-.33l-91.21-.65c-20-.15-41.35-.66-58.07-11.7C58.53,117.33,48.63,93.07,61.85,72.19,73.2,54.25,94.43,43.26,114.68,38.9c33.93-7.31,69.17,2.38,102.89-3.7a98.69,98.69,0,0,0,16.22-4.32c30.45-11,60.7-26.25,91.78-8.23C340.45,31.35,350.3,47.51,353.09,64.53Z"/><path class="cls-1" d="M101.25,4.27C96.17-1.1,93.05-2.15,90,5.48c-3.54,8.81-5.93,18.41-5.82,28A83.49,83.49,0,0,0,49.25,50.11C41.43,44.55,32.14,41,22.83,39c-8-1.81-8.93,1.35-7.39,8.58,1.9,8.92,4.94,17.53,7.88,26.15,1.84,5.4,3.51,10.85,5.39,16.22a38.75,38.75,0,0,0,7.17,14.9c8.88,11,26.55,17.45,40.24,19.26,15.5,2,30.18-1.91,40.62-13.69,9.37-10.57,15.76-25,18.19-38.83a46.9,46.9,0,0,0-2-23.92c-3.11-8.55-9.25-14.77-14.6-21.92C112.84,18.36,107.52,10.91,101.25,4.27Z"/><path class="cls-1" d="M330.23,42.29c29.18,27.78,26.12,59.8,10,88.12-17.88,31.41-47.32,52.68-80.16,66.52-38.78,16.34-83.16,24.7-124.7,14.9-8.34-2-17.47-6.07-19.93-14.29-7.28-24.31,30.65-23.88,44.17-25,27.8-2.37,57.25-2.66,84.29-11.7,29.66-9.92,50.79-31.08,65.63-58.16"/><path class="cls-1" d="M351.38,87.06a59.61,59.61,0,0,0-12.68-36.3c-20.65-26-60.84-26.77-88.51-12.7-31.74,16.15-36.77,58.9-24.34,89,.57,1.38-11.12,1-12.1,1-8.39.6-25.76-1-29.11,9.28-2.24,6.89,2.36,16.2,9.28,18.44a29.38,29.38,0,0,0,9,.93q32.63,0,65.23.08c17,0,29.87-3.12,40.07-17.64,5.31-7.56,9.33-16,15-23.3"/><path class="cls-2" d="M98.08,96.64c1.23,3.17-.77,6.91-4.46,8.33s-7.68,0-8.91-3.16.77-6.91,4.46-8.34S96.85,93.46,98.08,96.64Z"/><path class="cls-3" d="M128.7,38.46a60.31,60.31,0,0,0,3.56,5.38,17.32,17.32,0,0,1,1.63,2.91,20.21,20.21,0,0,1,1,3.21c.51,2.15.81,4.32,1.11,6.45s.54,4.34.65,6.53a61.21,61.21,0,0,1-.76,13.18,65,65,0,0,1-9.42,24.59A59.79,59.79,0,0,1,118.2,111a54.66,54.66,0,0,1-10.32,8.17,25.45,25.45,0,0,1-6.07,2.66,14.24,14.24,0,0,1-6.52.35c4.37-.05,8.2-2.11,11.5-4.64a52,52,0,0,0,4.77-4.12c.75-.74,1.52-1.45,2.24-2.23s1.43-1.52,2.12-2.32a67.72,67.72,0,0,0,7.33-10.16,69.1,69.1,0,0,0,5.46-11.25A72.24,72.24,0,0,0,133.54,63c.06-2.11,0-4.16-.14-6.33s-.18-4.26-.43-6.34a18,18,0,0,0-.55-3,19.39,19.39,0,0,0-1.14-2.9A40.2,40.2,0,0,1,128.7,38.46Z"/><ellipse class="cls-4" cx="194.56" cy="169.21" rx="194.56" ry="46.81"/></g></g></svg>