<svg xmlns="http://www.w3.org/2000/svg" viewBox="0 0 2005 2005"><defs><style>.cls-1,.cls-5{fill:none;}.cls-2{fill:#ffc73c;}.cls-3{fill:#fff;}.cls-4{fill:#dbcdfe;}.cls-5{stroke:#fff;stroke-miterlimit:10;stroke-width:4px;}</style></defs><title>contactover</title><g id="Layer_2" data-name="Layer 2"><g id="Layer_1-2" data-name="Layer 1"><rect class="cls-1" width="2005" height="2005" transform="translate(2005 0) rotate(90)"/><rect class="cls-2" x="1225.89" y="598.46" width="491.31" height="298.34" rx="41" transform="translate(2943.1 1495.26) rotate(180)"/><polygon class="cls-2" points="1290.56 975.33 1290.56 838.23 1397.93 896.8 1290.56 975.33"/><rect class="cls-3" x="1300.73" y="735.04" width="243.22" height="26.03" rx="9"/><rect class="cls-3" x="1562.65" y="735.04" width="79.72" height="26.03" rx="9"/><rect class="cls-3" x="1399.15" y="675.93" width="243.22" height="26.03" rx="9" transform="translate(3041.52 1377.88) rotate(180)"/><rect class="cls-3" x="1300.73" y="675.93" width="79.72" height="26.03" rx="9" transform="translate(2681.17 1377.88) rotate(180)"/><rect class="cls-3" x="1300.73" y="789.07" width="170.82" height="26.03" rx="9"/><path class="cls-4" d="M527,638.84H462.36a50.12,50.12,0,0,0-50,50h0a50,50,0,0,0,21.66,41.09v35.17l36-26.3h57a50.12,50.12,0,0,0,50-50h0A50.12,50.12,0,0,0,527,638.84Z"/><circle class="cls-3" cx="458.48" cy="688.8" r="7.58" transform="translate(-317.02 977.36) rotate(-76.76)"/><circle class="cls-3" cx="494.68" cy="688.8" r="7.58" transform="translate(-342.17 551.54) rotate(-45)"/><circle class="cls-3" cx="530.88" cy="688.8" r="7.58" transform="translate(-331.57 577.13) rotate(-45)"/><path class="cls-4" d="M1350,1097.88c-10-17.05-35.12-25.61-59.43,2.81-24.31-28.42-49.47-19.86-59.43-2.81-24.56,42,59.43,91.47,59.43,91.47S1374.55,1139.9,1350,1097.88Z"/><rect class="cls-4" x="799.69" y="548.77" width="148.96" height="99.39" rx="12"/><path class="cls-5" d="M802.1,552l65.22,63.24a10,10,0,0,0,13.71,0L946.25,552"/><line class="cls-5" x1="802.1" y1="644.95" x2="855.61" y2="603.85"/><line class="cls-5" x1="946.25" y1="644.95" x2="892.74" y2="603.85"/><rect class="cls-4" x="523.23" y="916.49" width="172.08" height="119.52" rx="12"/><polygon class="cls-4" points="609.26 1073.77 639.43 1033.08 579.09 1033.08 609.26 1073.77"/><path class="cls-3" d="M654.53,991.61h-7.44V971.23l.07-3.34.12-3.67c-1.23,1.24-2.09,2-2.57,2.44l-4.05,3.25-3.59-4.48,11.35-9h6.11Z"/><path class="cls-3" d="M599.35,955.21H574.93a18.93,18.93,0,0,0-18.88,18.88h0a18.89,18.89,0,0,0,8.19,15.53v13.28L577.82,993h21.53a18.93,18.93,0,0,0,18.88-18.87h0A18.93,18.93,0,0,0,599.35,955.21Z"/></g></g></svg>