<?xml version="1.0" encoding="utf-8"?>
<!-- Generator: Adobe Illustrator 23.0.0, SVG Export Plug-In . SVG Version: 6.00 Build 0)  -->
<svg version="1.1" id="Layer_1" xmlns="http://www.w3.org/2000/svg" xmlns:xlink="http://www.w3.org/1999/xlink" x="0px" y="0px"
	 viewBox="0 0 2005 2005" style="enable-background:new 0 0 2005 2005;" xml:space="preserve">
<style type="text/css">
	.st0{fill:none;}
	.st1{fill:#F5F5FE;}
	.st2{fill:#0B2D4E;}
	.st3{fill:#D74034;}
	.st4{fill:#061F33;}
	.st5{fill:#EF5132;}
	.st6{clip-path:url(#SVGID_2_);}
	.st7{fill:#B8D1CE;}
	.st8{fill:#FFFFFF;}
	.st9{fill:#F8A17A;}
	.st10{fill:#E5785C;}
	.st11{fill:#9B87FF;}
	.st12{opacity:0.2;fill:#FFFFFF;enable-background:new    ;}
	.st13{fill:#8070F2;}
	.st14{fill:none;stroke:#0B2D4E;stroke-width:4;stroke-miterlimit:10;}
	.st15{fill:#73B8D4;}
	.st16{fill:#3DC8E8;}
	.st17{clip-path:url(#SVGID_4_);}
	.st18{fill:none;stroke:#26A8D1;stroke-width:5;stroke-miterlimit:10;}
	.st19{fill:#26A8D1;}
	.st20{clip-path:url(#SVGID_6_);}
	.st21{fill:none;stroke:#3DC8E8;stroke-width:5;stroke-miterlimit:10;}
	.st22{fill:#EFB126;}
	.st23{fill:#FFC73C;}
	.st24{opacity:0.1;fill:#231F20;enable-background:new    ;}
	.st25{fill:#DBCDFE;}
</style>
<title>contact</title>
<g>
	<g id="Layer_1-2">
		<rect class="st0" width="2005" height="2005"/>
		<circle class="st1" cx="1002.5" cy="1084.5" r="705.5"/>
		<path class="st1" d="M163.8,329.9c-1-5.7,6.6-17.3,14.9-17.1c3.3,0.1,6.5,0.9,9.8,0.8c8.8-0.4,13.3-7.3,16.7-12.9
			s10.1-12.1,18.7-10.7c12.3,2.1,18.5,18.3,32.5,6.1c9.2-8,9.9-19.1,20.2-26.9c7.1-5.3,18.7-8.5,28.2-5.5
			c12.5,3.8,17.1,16.2,30.4,18.3c14.7,2.4,25.3-8.8,29.9-16.9c5.7-9.8,7.8-20.4,12.7-30.3c4.5-9.2,13.6-21.6,29.8-21.3
			c13.7,0.2,19.8,8.9,26.5,15.8c8.8,9,27,41.2,47.5,37.4c8-1.5,12-7.9,19.1-10.7c11.6-4.6,26.3,1.7,33.3,9.6s9.7,17.4,17.6,24.9
			c2.1,2.2,4.8,3.8,7.7,4.6c11,3,21.2-6.3,33-6.9c7.6-0.3,15,2.6,20.3,8c4.7,4.6,7.2,10.2,10.8,15.3c1,1.6,2.3,2.9,3.9,3.8
			c5.2,2.8,12.4,0.4,18.8-0.6c15.6-2.7,33.4,4.5,37.8,15.3L163.8,329.9z"/>
		<path class="st1" d="M1813.1,274.4c0.8-5-5.9-15.3-13.2-15.1c-2.9,0.1-5.8,0.8-8.7,0.7c-7.7-0.4-11.7-6.4-14.7-11.4
			s-8.9-10.7-16.4-9.4c-10.8,1.8-16.3,16.1-28.7,5.4c-8.1-7-8.7-16.9-17.8-23.7c-6.3-4.7-16.5-7.5-24.9-4.9
			c-11,3.4-15.1,14.3-26.8,16.1c-13,2.1-22.3-7.8-26.4-14.9c-5-8.6-6.9-17.9-11.2-26.7c-4-8.1-12-19-26.3-18.8
			c-12.1,0.2-17.4,7.9-23.4,14c-7.7,7.9-23.8,36.3-41.8,32.9c-7-1.3-10.5-6.9-16.9-9.4c-10.2-4-23.2,1.5-29.3,8.4
			s-8.6,15.3-15.5,21.9c-1.9,1.9-4.2,3.3-6.8,4.1c-9.7,2.7-18.7-5.5-29.1-6.1c-6.7-0.2-13.2,2.3-17.9,7c-4.1,4.1-6.4,9-9.5,13.5
			c-0.9,1.4-2.1,2.5-3.5,3.4c-4.6,2.5-11,0.4-16.5-0.6c-13.8-2.4-29.4,4-33.3,13.5L1813.1,274.4z"/>
		<path class="st2" d="M1083.6,1082.7c-12.2,11.8-26.4,21-43.3,24.8c-32.1,7.3-62.2-6.8-89-23c-28.6-17.4-57.1-35-84.1-54.8
			c-19.3-14.2-39-29.3-51-50.5c-13.9-24.6-14.7-54.1-11.9-81.5c1.9-18.7-6.8-35.5-10.7-53.4c-7.5-34.8,0.2-75.8,32.6-95.8
			c16.6-10.2,33.9-8.7,51.3-1.2C891,753,903.5,761,917.4,765c29.8,8.5,62-3.2,91.2-9.2c21.1-4.3,44.2-6.6,65,0.3
			c23.2,7.8,34.2,24.7,46.8,44.3c10.8,16.8,27.2,29.4,40.3,44.3c17.5,20,22.8,45.3,16.9,71c-8.7,37.8-30.4,70.3-49.3,103.5
			C1116.3,1040.5,1102.2,1064.7,1083.6,1082.7z"/>
		<path class="st3" d="M844.9,1441.6c38.5-59.3,62.5-132.2,29-199.2c-3.4-6.8-7.5-14.2-14.7-16.6c-15.5-5.2-36.5,0.4-50,8.3
			c-46.7,27.4-75.3,79-101.6,124.9c-27.3,47.7-51,97.3-78.4,145c-11.1,19.3-22.3,38.8-28.3,60.3c-5.2,18.8-5.8,40.3,1.3,58.7
			c30.8,79.5,115.4-17.9,141.1-47.3C780.4,1533.4,814.3,1488.6,844.9,1441.6z"/>
		<path class="st4" d="M1036.8,1081.7c-4.1,4.4-9,8.1-14.4,10.8c-14,7-30.8,6.6-45.8,2s-28.4-13.1-41.2-22.2
			c-34.6-24.4-77.4-56.8-98-94.4c-12.7-23.2-22.1-50.5-10-75.8c10.4-21.7,31.7-37.8,55.9-40.1c2-0.3,4-0.1,5.9,0.6
			c2,1,3.3,3,4.5,4.9c8.8,14.4,15.7,30,26.4,43.1c11.6,14.3,26,24.9,41.7,34.5c25.4,15.4,53.2,26.8,77.1,44.4
			c17.2,12.7,17.7,41.4,13.5,61.3C1050.1,1062.4,1044.7,1073,1036.8,1081.7z"/>
		<path class="st5" d="M1230.4,1365.6c12.2-44.5,18.5-90.1-9.1-120.4c-12.5-13.7-34.7-23.2-52.9-30c-35.5-13.2-71.8-31-109.8-36.8
			c-40.1-6.1-84.6-9.8-124.5-1.1c-25.4,5.5-49.1,15.7-71.7,26.7c-30.4,14.8-52.1,24.8-61.9,55.2c-10.8,33.8-17.4,68.5-21.1,103.3
			c-10.7,102.1,3.5,204.4,3.1,306.5c0,10,0.1,20.5,5.2,29.5c10,17.8,37.3,18,57,18l194.5-0.3c27,0,47.6,2.8,72.9,7.3
			c21.3,3.8,39.6-5.5,49.8-22.6c9.7-16.2,10.4-35.1,11.5-53.3c4.1-71.1,15.7-141.6,34.7-210.2
			C1213.6,1418,1223.1,1392.4,1230.4,1365.6z"/>
		<g>
			<defs>
				<path id="SVGID_1_" d="M1230.4,1365.6c12.2-44.5,18.5-90.1-9.1-120.4c-12.5-13.7-34.7-23.2-52.9-30
					c-35.5-13.2-71.8-31-109.8-36.8c-40.1-6.1-84.6-9.8-124.5-1.1c-25.4,5.5-49.1,15.7-71.7,26.7c-30.4,14.8-52.1,24.8-61.9,55.2
					c-10.8,33.8-17.4,68.5-21.1,103.3c-10.7,102.1,3.5,204.4,3.1,306.5c0,10,0.1,20.5,5.2,29.5c10,17.8,37.3,18,57,18l194.5-0.3
					c27,0,47.6,2.8,72.9,7.3c21.3,3.8,39.6-5.5,49.8-22.6c9.7-16.2,10.4-35.1,11.5-53.3c4.1-71.1,15.7-141.6,34.7-210.2
					C1213.6,1418,1223.1,1392.4,1230.4,1365.6z"/>
			</defs>
			<clipPath id="SVGID_2_">
				<use xlink:href="#SVGID_1_"  style="overflow:visible;"/>
			</clipPath>
			<g class="st6">
				<path class="st3" d="M1073.6,1236.1c13.7-22.1,16.8-49.8-1.1-71.1c-8.2-9.8-22.8-10.8-35.2-11.1c-24.5-0.4-48.9,2-72.8,7.4
					c-22.7,5.1-45.9,13.7-55.7,35.7c-7.3,16.3-4.8,35.3,4.9,50.2c9.1,13.8,23.3,23.6,39.4,27.3c26.1,6,56.7,5.2,81.7-4.9
					C1050.3,1263.3,1064.4,1250.9,1073.6,1236.1z"/>
				<path class="st3" d="M818.9,1712.8c26.1,12.3,54.6,18.5,83.1,23.3c79.6,13.3,160.8,16.1,241.5,12.3c17.2-0.8,35.9-2.5,48.7-14.2
					c9.5-8.7,13.9-21.5,17.1-33.9c10.8-42.4,10.7-86.7,10.4-130.5c-0.2-34.1-0.4-68.3-0.5-102.4c-0.1-11.9,7.7-84.2-10.8-83.4
					c-2,0.2-3.9,1-5.4,2.3c-9.2,6.6-13.9,17.6-18.2,28.1c-13.5,32.8-24.8,85.3-52.8,108.3c-29.5,24.1-63.4,35.3-99.1,46.9
					c-61.9,20-131,28.8-183.4,70c-8.7,6.9-17.1,14.5-25.2,22.1c-7.3,6.9-17.3,14-21.6,23.6C795.7,1700.1,806.3,1706.9,818.9,1712.8z
					"/>
			</g>
		</g>
		<path class="st5" d="M1370.1,1471.7c9.9,17.8,19.6,35.6,29.2,53.4c19.5,36.3,55.7,117.1-2.3,137c-29.2,10-45.9,0.2-65.2-21.1
			c-73.1-80.6-135.2-170.6-184.7-267.6c-18.4-36-67.2-129.9-7.9-151.4c19-6.7,40-5.2,57.8,4.2c8,4.3,15.1,10.1,21.9,16.2
			c42.8,38.1,73.2,87.3,100.3,137.2C1336,1410.6,1353.1,1441.1,1370.1,1471.7z"/>
		<path class="st5" d="M1074.8,1602c5.1-0.9,10.2-1.7,15.3-2.5c24.9-3.9,49.7-8.4,74.3-13.7c48.8-10.5,97.9-19.4,147.6-24.1
			c5.3-0.5,10.5-0.9,15.8-1.3c22.3-1.7,45.6-2.3,66,8.1s36.5,35,31.5,58.7c-3.5,16.7-16.6,29.3-31.1,35.6s-30.5,7.5-46.1,8.5
			l-152.2,10.3c-25.1,1.7-50.2,3.4-75.3,5.2c-24,1.7-48.3,5-72.4,5c-10.2,0-21.5-1.8-30.1-8.5c-11.9-9.2-19-28.8-20.1-44.2
			c-0.6-8,1-17.7,7.3-22.6c3.3-2.7,7.6-3.5,11.7-4.2C1036.3,1608.9,1055.5,1605.3,1074.8,1602z"/>
		<rect x="637.8" y="1620" class="st7" width="240.5" height="47.1"/>
		<path class="st7" d="M679.1,1624.6l-60.7-309c-1.6-8.1-8.8-14-17.1-14H197.8c-5.5,0-10.8,2.7-14,7.2h-0.1l-18.6,22l16.5-3.6
			l59.8,304.3c1.6,8.1,8.8,14,17.1,14H662c9.6,0,17.4-7.8,17.4-17.4C679.4,1626.9,679.3,1625.7,679.1,1624.6z"/>
		<path class="st8" d="M240.1,1667.1h403.5c9.6,0,17.4-7.8,17.4-17.4c0-1.1-0.1-2.3-0.3-3.4l-60.7-309c-1.6-8.1-8.8-14-17.1-14
			H179.4c-9.6,0-17.4,7.8-17.4,17.4c0,1.1,0.1,2.2,0.3,3.2l60.7,309C224.5,1661.2,231.7,1667.1,240.1,1667.1z"/>
		<path class="st7" d="M367,1487.5c3.7,20.8,23.6,37.8,44.5,37.8s34.5-16.9,30.5-37.8s-24-37.7-44.5-37.7S363.3,1466.7,367,1487.5z"
			/>
		<path class="st9" d="M1017.3,1677.7c-12,2.5-21.4,13-33.3,16.5c-8.5,2.5-17.6,1.2-25.8-1.9c-7.5-2.8-15.2-4.3-22.9-6.8
			c-6-1.9-14.2-6-20.6-4.6c-17,3.5-33.8,15.6-49.2,23.4c-3.5,1.8-7.2,3.6-11,2.8s-7-5.3-4.8-8.6c-4.4,4.1-10.3,12.4-17.4,9.2
			c-2.9-1.3-4.7-5.2-3.1-7.9c-2.5,2.7-5,5.5-8.4,6.8s-7.8,0.8-9.8-2.3c-0.9-1.5-1.3-3.2-1.3-4.9c-0.3-5.9,1.5-11.7,3.9-17
			c12.1-26.4,39.5-46,62.8-61.7c4.1-2.8,8.3-5.6,13.1-7.1c4.3-1.3,8.8-1.4,13.2-1.5c28.9-0.1,57.7,4.5,85.1,13.8
			c5.9,2,12.4,0.3,18.3-0.8c4.4-0.8,8.9-1.6,13.2-0.4c4.8,1.4,8.5,5.2,11.4,9.2c5.3,7.4,9.4,17.3,8.8,26.6c-0.5,7.1-1,14.7-9.3,16.2
			c-3.4,0.6-6.9,0.2-10.3,0.6C1019,1677.4,1018.2,1677.5,1017.3,1677.7z"/>
		<path class="st9" d="M1022.5,1250.7c17.6-5.7,32.2-16.6,37.6-34.1c4.9-15.8-2.8-33.6-4.2-49.6c-1.3-15.3-1.5-30.7-0.5-46
			c0.9-14.2,2.3-28.9,0.1-43c-1.2-8.1-5.7-6.7-13.8-9.9s-17.3-3.2-26.2-3.2c-18.2,0-65.5-1.3-76.7,14.7c-5.2,7.3-5.6,16.5-5.8,25.2
			c-0.3,10.5-2.2,24.1-3.9,38.8c-0.8,6.5-0.3,13-1.3,19.5c-1.1,7.3-3.9,14.2-6.3,21.2c-9.1,26.3-0.6,51.3,27.9,63.4
			C969.7,1256.3,998.9,1258.3,1022.5,1250.7z"/>
		<path class="st10" d="M1055.3,1078c-1.2-8.1-5.7-6.7-13.8-9.9s-17.3-3.2-26.2-3.2c-18.2,0-65.5-1.3-76.7,14.7
			c-5.2,7.3-5.5,16.5-5.8,25.2c-0.3,10.5-2.2,24.1-3.9,38.8c-0.8,6.5-0.3,13-1.3,19.5c-1,5.5-2.5,11-4.5,16.2
			c17.9,6.7,37.3,7.9,55.9,3.5c33.1-8.1,58.1-28.7,76-55.5c0.1-2.1,0.2-4.2,0.3-6.3C1056.2,1106.9,1057.5,1092.1,1055.3,1078z"/>
		<path class="st9" d="M1081.7,974.4c-0.2-24.3-3.5-47.3-9.7-66.3c-26.9-82.4-129.7-102.8-191.6-43.6c-69,66-42.6,223.7,30.1,279.1
			c19.9,14.9,45.4,19.9,69.5,13.7C1051.4,1138,1082.2,1050.1,1081.7,974.4z"/>
		<path class="st2" d="M1017.5,960.8c3.3,8.4,5.3,17.5,7,26.4c3.9,19.4,4.2,39.3,4.2,59c0,2,0.1,4.3,1.4,5.8s3.3,2,5.2,2.3
			c11.3,1.2,18.2-8.9,27.8-13.5c9.9-4.8,19.9-9.6,28.6-16.4c24.6-19.3,19-51.2,18.2-79.5c-0.4-15.6-0.9-31.4-5.5-46.3
			c-5-16.2-14.7-30.7-26.2-43.2c-33.3-36-83.7-54.7-132.4-51.6c-24.1,1.5-51.3,11.7-68.5,29.1c-14.8,15,3.2,35.3,15.4,45
			c23.9,19,50.4,34.4,78.7,45.7c12.1,4.9,25,9.3,34.3,18.5C1010.8,947.4,1014.9,953.8,1017.5,960.8z"/>
		<path class="st9" d="M1068.2,976.4c31.6-17.3,41.4,26.5,35.9,48.3c-2.3,9-5.8,17.8-11.4,25.2c-7.5,10-29,26.5-41.4,15.6
			c-5.6-5-6.2-13.4-6.4-20.8C1044.5,1024.5,1046.8,988.1,1068.2,976.4z"/>
		<path class="st8" d="M1525.2,1482.6c4.4-9.2,3.7-18.9,0.8-27.6c-2.7-9-7.5-16.7-12.7-25.1s-10.6-17.4-13.9-28.3
			s-2.4-23.4,0.7-33.9c6.6-21.4,20.2-37.1,29.6-53.2c4.7-8.1,8.5-16.4,10-25.6c1.7-9.1,1.1-18.7-3.3-27.8c7.7,6.8,11.5,17.7,12,28.3
			s-2.2,21.6-6.3,31.2c-8.1,19.4-20.3,35.1-25,52.2c-2.7,8.4-3.3,16.6-1.4,24.8c1.6,8.4,6,16.8,9.9,26c4.2,9,8.2,19.3,9.1,29.9
			C1535.4,1463.9,1533.1,1475.8,1525.2,1482.6z"/>
		<path class="st11" d="M1469.4,1494.4h119.9l0,0v146.8c0,13.8-11.2,25-25,25l0,0h-69.9c-13.8,0-25-11.2-25-25l0,0V1494.4
			L1469.4,1494.4z"/>
		<path class="st11" d="M1597.7,1533.2c-28.8,0-52.1,23.7-52.1,52.8s23.3,52.8,52.1,52.8s52.1-23.7,52.1-52.8
			S1626.5,1533.2,1597.7,1533.2z M1597.7,1620c-18.6-0.1-33.6-15.3-33.5-34c0,0,0,0,0,0c0-18.8,15-34,33.5-34s33.5,15.2,33.5,34
			C1631.3,1604.7,1616.4,1619.9,1597.7,1620L1597.7,1620z"/>
		<path class="st12" d="M1487.4,1600.9L1487.4,1600.9c-3.6,0-6.5-2.9-6.5-6.5v-83.6c0-3.6,2.9-6.5,6.5-6.5l0,0
			c3.6,0,6.5,2.9,6.5,6.5v83.6C1493.8,1598,1490.9,1600.9,1487.4,1600.9z"/>
		<path class="st13" d="M1561.7,1494.4v141.4c0,16.8-13.6,30.4-30.4,30.4h27.7c16.8,0,30.4-13.6,30.4-30.4v-141.4H1561.7z"/>
		<path class="st14" d="M814.8,888.5c-13.6-38-40.8-68.7-25.2-111.4c9.2-25,32.9-41.7,59.5-41.9c12.6-0.2,25,3,36,9.2
			c13,7.5,21.5,19.6,36.6,23.7c35.5,9.6,72.3-17.5,106.2-23.8c33.6-6.3,69.3,4.8,85.8,36.8c6.5,12.7,9.2,27.3,17.8,38.6
			c14.2,19,41.9,25.5,53.2,46.4c18.4,34.1-19.4,83.4-38.6,109.6"/>
		<path class="st15" d="M904.1,802c2.8,0.1,5.6,0.3,8.3,0.2s5.6-0.1,8.3-0.2c5.5-0.3,11.1-0.9,16.5-1.7c11-1.5,21.9-3.6,33-5.1
			c11.1-1.6,22.4-2.1,33.7-1.5c2.8,0.2,5.6,0.5,8.4,0.9c2.8,0.4,5.6,1,8.4,1.7c5.6,1.4,11,3.5,16,6.3c2.5,1.5,4.9,3.1,7.1,5
			c2.2,1.9,4.2,4,6.1,6.2c1.8,2.3,3.4,4.7,4.8,7.3c1.3,2.6,2.4,5.4,3.1,8.2c0.7,2.9,1,5.8,0.9,8.8c-0.1,2.9-0.5,5.8-1.3,8.6
			c-0.6,2.8-1.3,5.4-1.7,8c-0.4,2.6-0.5,5.3-0.2,7.9c0.7,5.4,2.3,10.6,4.8,15.4c2.3,5,5.2,9.8,7.8,14.7c2.7,5,4.7,10.2,6.1,15.7
			c0.7,2.7,1,5.6,1,8.4c0,2.8-0.5,5.6-1.4,8.3c1.3-5.4,1.1-11.1-0.6-16.3c-1.7-5.3-4-10.3-6.8-15c-2.8-4.8-5.8-9.5-8.4-14.5
			c-2.8-5-4.6-10.5-5.5-16.2c-0.4-2.9-0.4-5.8,0-8.8c0.4-2.9,1.1-5.6,1.6-8.3c0.6-2.6,0.9-5.3,1-7.9c0-2.6-0.3-5.2-0.9-7.8
			c-0.7-2.5-1.6-5-2.8-7.3c-1.3-2.3-2.7-4.6-4.4-6.6c-1.7-2-3.6-3.9-5.6-5.7c-2-1.7-4.2-3.2-6.5-4.6c-4.7-2.7-9.8-4.7-15-6
			c-5.3-1.3-10.7-2.2-16.1-2.6c-11-0.8-22.1-0.5-33,0.8c-11,1.2-22,2.9-33.2,3.9c-5.6,0.5-11.2,0.8-16.7,0.8
			C915.1,803,909.6,802.7,904.1,802z"/>
		<path class="st16" d="M1697,981.3c-11-0.1-21.7-1.5-29.2-12.3c-14.8-21.2-37.4-40.2-62.7-18.7c-14.6,12.4-3.6,38-16.2,50.3
			c-11.1,10.9-25.3,9.1-30.9,27.1c-8.4,26.6,18,49.8,26.5,72.8c7.1,19.3-8.9,26.6-16,41.6c-5.5,11.6-2.7,24,3.3,35
			c10.6,19.5,34.2,35.2,28.7,60.5c-4.6,21.1-8.8,39.9,9.8,55.9c12.8,11,36.4,20.9,34.6,41.2c-0.6,7.2-5.6,13.3-7,20.4
			c-2.2,11.2,5.1,22.1,13.5,29.8c19.2,17.5,36,34,50.3,56c6.1,9.4,30.7,30.6,20.9,43.5c17.8-23.3,36.7-46,52.9-70.6
			c13.3-20.2,33.4-49.7,19.8-74.6c-4.3-7.7-12.2-13.5-14.3-22.1c-3.9-15.5,11.3-29.8,16.9-42.9c8.9-20.7,2.4-44.6-13.3-60.1
			c-7.4-7.3-15.4-15.4-16.5-25.8c-1.2-11.3,5.9-21.8,9.1-32.3c2.9-9.7,4.9-19.7,5.9-29.8c0.8-7.1,1.1-14.3-0.6-21.2
			c-3.2-13.1-15-20.4-23.7-29.7c-20.8-22.2-9.9-48.2-19-74C1731.7,978.3,1714,981.4,1697,981.3z"/>
		<g>
			<defs>
				<path id="SVGID_3_" d="M1697,981.3c-11-0.1-21.7-1.5-29.2-12.3c-14.8-21.2-37.4-40.2-62.7-18.7c-14.6,12.4-3.6,38-16.2,50.3
					c-11.1,10.9-25.3,9.1-30.9,27.1c-8.4,26.6,18,49.8,26.5,72.8c7.1,19.3-8.9,26.6-16,41.6c-5.5,11.6-2.7,24,3.3,35
					c10.6,19.5,34.2,35.2,28.7,60.5c-4.6,21.1-8.8,39.9,9.8,55.9c12.8,11,36.4,20.9,34.6,41.2c-0.6,7.2-5.6,13.3-7,20.4
					c-2.2,11.2,5.1,22.1,13.5,29.8c19.2,17.5,36,34,50.3,56c6.1,9.4,30.7,30.6,20.9,43.5c17.8-23.3,36.7-46,52.9-70.6
					c13.3-20.2,33.4-49.7,19.8-74.6c-4.3-7.7-12.2-13.5-14.3-22.1c-3.9-15.5,11.3-29.8,16.9-42.9c8.9-20.7,2.4-44.6-13.3-60.1
					c-7.4-7.3-15.4-15.4-16.5-25.8c-1.2-11.3,5.9-21.8,9.1-32.3c2.9-9.7,4.9-19.7,5.9-29.8c0.8-7.1,1.1-14.3-0.6-21.2
					c-3.2-13.1-15-20.4-23.7-29.7c-20.8-22.2-9.9-48.2-19-74C1731.7,978.3,1714,981.4,1697,981.3z"/>
			</defs>
			<clipPath id="SVGID_4_">
				<use xlink:href="#SVGID_3_"  style="overflow:visible;"/>
			</clipPath>
			<g class="st17">
				<path class="st18" d="M1724.9,1510.7c7.7-88.6,0.6-177.8-15.7-265.1c-15.6-83.2-36.1-166.7-67.2-245.6
					c-10.2-26.1-21.8-51.6-34.9-76.4"/>
				<path class="st18" d="M1537.2,1042.4c43.7,15.4,85.1,36.5,123.4,62.6c9.7,6.6,15.1,8.6,23.2,17.2"/>
				<path class="st18" d="M1704.4,1217c-42-27.1-89.1-45.3-138.4-53.4"/>
				<path class="st18" d="M1720.9,1331.3c-39.2-33.9-86.2-57.4-136.7-68.6"/>
				<path class="st18" d="M1681.5,1119.2c3.1-47,14.7-93,34.2-135.8"/>
				<path class="st18" d="M1703.8,1213.1c19.9-42.5,48.3-80.4,83.4-111.4"/>
				<path class="st18" d="M1723.5,1334.5c2.7-13.1,7.5-25.7,14.2-37.3c7.7-13.5,17.8-25.5,28.1-37.1c7.4-8.4,14.9-16.7,22.6-24.9"/>
			</g>
		</g>
		<path class="st19" d="M1832.2,1142.8c8,1.5,15.9,1.9,22.9-4.9c13.7-13.3,32.7-24,48.1-4.9c8.9,11-2.6,28.1,4.8,38.7
			c6.6,9.4,17.1,10.1,18.7,24c2.4,20.4-19.9,33.6-29.3,49.1c-7.8,13,2.8,20.5,5.9,32.4c2.4,9.2-1.4,17.8-7.3,25
			c-10.4,12.7-29.7,20.8-29.2,39.9c0.4,15.9,0.9,30.2-14.8,39.2c-10.8,6.2-29.3,10.1-30.8,25.1c-0.5,5.3,2.2,10.4,2.2,15.7
			c0,8.4-6.8,15.3-13.9,19.7c-16.3,10-30.8,19.7-44.3,33.6c-5.8,6-26.5,18-21.2,28.7c-9.7-19.4-20.2-38.4-28.6-58.5
			c-6.9-16.5-17.4-40.7-4-56.8c4.2-5,10.7-8.1,13.4-14c5-10.7-4-23.2-6.3-33.5c-3.6-16.2,4.5-32.7,17.9-41.8
			c6.4-4.3,13.3-9,15.5-16.4c2.4-8-1.3-16.7-2.2-24.7c-0.8-7.5-0.8-15-0.2-22.4c0.4-5.2,1.2-10.5,3.4-15.3
			c4.1-9.1,13.7-12.7,21.3-18.3c18.2-13.2,13.8-33.6,24-51C1807.4,1135.8,1819.8,1140.5,1832.2,1142.8z"/>
		<g>
			<defs>
				<path id="SVGID_5_" d="M1832.2,1142.8c8,1.5,15.9,1.9,22.9-4.9c13.7-13.3,32.7-24,48.1-4.9c8.9,11-2.6,28.1,4.8,38.7
					c6.6,9.4,17.1,10.1,18.7,24c2.4,20.4-19.9,33.6-29.3,49.1c-7.8,13,2.8,20.5,5.9,32.4c2.4,9.2-1.4,17.8-7.3,25
					c-10.4,12.7-29.7,20.8-29.2,39.9c0.4,15.9,0.9,30.2-14.8,39.2c-10.8,6.2-29.3,10.1-30.8,25.1c-0.5,5.3,2.2,10.4,2.2,15.7
					c0,8.4-6.8,15.3-13.9,19.7c-16.3,10-30.8,19.7-44.3,33.6c-5.8,6-26.5,18-21.2,28.7c-9.7-19.4-20.2-38.4-28.6-58.5
					c-6.9-16.5-17.4-40.7-4-56.8c4.2-5,10.7-8.1,13.4-14c5-10.7-4-23.2-6.3-33.5c-3.6-16.2,4.5-32.7,17.9-41.8
					c6.4-4.3,13.3-9,15.5-16.4c2.4-8-1.3-16.7-2.2-24.7c-0.8-7.5-0.8-15-0.2-22.4c0.4-5.2,1.2-10.5,3.4-15.3
					c4.1-9.1,13.7-12.7,21.3-18.3c18.2-13.2,13.8-33.6,24-51C1807.4,1135.8,1819.8,1140.5,1832.2,1142.8z"/>
			</defs>
			<clipPath id="SVGID_6_">
				<use xlink:href="#SVGID_5_"  style="overflow:visible;"/>
			</clipPath>
			<g class="st20">
				<path class="st21" d="M1738.7,1522.9c6.7-65.3,24.2-129.1,48.1-190.1c22.8-58.2,49.3-115.9,82.7-168.8
					c11-17.5,23-34.4,35.9-50.6"/>
				<path class="st21" d="M1939.6,1209.2c-33.8,5.1-66.8,14.6-98.1,28.3c-7.9,3.5-12.1,4.2-19.2,9.2"/>
				<path class="st21" d="M1794.2,1312.7c34.2-13.8,70.9-20.5,107.8-19.6"/>
				<path class="st21" d="M1766.4,1393.3c33.1-19.1,70.5-29.7,108.7-30.9"/>
				<path class="st21" d="M1824.3,1244.9c4.3-34.5,2.2-69.5-6-103.3"/>
				<path class="st21" d="M1795.1,1310c-8.5-33.6-23.9-65-45.1-92.4"/>
				<path class="st21" d="M1764.1,1395.3c-0.2-9.9-1.9-19.7-5.1-29c-3.7-10.8-9.4-20.9-15.2-30.8c-4.2-7.1-8.5-14.2-12.9-21.2"/>
			</g>
		</g>
		<polygon class="st22" points="1661,1500.3 1824.3,1500.3 1795.6,1663.7 1689.6,1663.7 		"/>
		<rect x="1641" y="1454.4" class="st23" width="203.3" height="45.9"/>
		<polygon class="st24" points="1820.5,1521.9 1664.8,1521.9 1661,1500.3 1824.3,1500.3 		"/>
		<path class="st25" d="M1877.2,1724.2H147c-17.6,0-31.9-13.6-31.9-30.4l0,0c0-16.8,14.3-30.4,31.9-30.4h1730.2
			c17.6,0,31.9,13.6,31.9,30.4l0,0C1909.1,1710.6,1894.8,1724.2,1877.2,1724.2z"/>
	</g>
</g>
</svg>
