<?xml version="1.0" encoding="utf-8"?>
<!-- Generator: Adobe Illustrator 23.0.0, SVG Export Plug-In . SVG Version: 6.00 Build 0)  -->
<svg version="1.1" id="Layer_1" xmlns="http://www.w3.org/2000/svg" xmlns:xlink="http://www.w3.org/1999/xlink" x="0px" y="0px"
	 viewBox="0 0 2686 1179.8" style="enable-background:new 0 0 2686 1179.8;" xml:space="preserve">
<style type="text/css">
	.st0{clip-path:url(#SVGID_2_);}
	.st1{fill:#382B44;}
	.st2{fill:#2C1F35;stroke:#2C1F35;stroke-miterlimit:10;}
	.st3{fill:#2C1F35;}
	.st4{fill:none;stroke:#382B44;stroke-width:3;stroke-miterlimit:10;}
</style>
<g transform="translate(752.77 -49.21)">
	<g>
		<g>
			<defs>
				<rect id="SVGID_1_" x="-752.8" y="49.2" width="2686" height="1179.8"/>
			</defs>
			<clipPath id="SVGID_2_">
				<use xlink:href="#SVGID_1_"  style="overflow:visible;"/>
			</clipPath>
			<g id="Group_15" class="st0">
				<path id="Path_387" class="st1" d="M2102,933.8c3.7-67.5,7.3-134.9,10.9-202.4c6.6-122.9,13.3-245.9,14.8-369
					c0.6-47.3,0.5-94.8-6.3-141.7c-6.3-42.9-12.5-85.9-48.2-114.7c-70.6-57-166.8-85-255.5-96.7c-84.4-11-169.6-5.9-254.4-7.8
					c-151.3-3.3-338-11.8-456.6,97.2c-48.5,44.6-69,108.9-118.4,151.8c-43.5,37.8-97.2,48-149.6,67.8
					C785,338.7,732.2,366.2,694,410.3c-33.4,38.5-52.8,86.1-69.9,133.4c-16.6,45.7-27.9,99.5-64.4,133.9
					c-29.8,28.1-70.7,37.8-107.4,53.1c-40.2,16.8-80.1,45.3-106.3,80.4c-44.6,59.5-26.9,141.9-68.1,203
					c-37.7,55.9-104.2,82.6-159.2,117.5c-47.1,29.8-95.2,72-112,128.1c-21,70.2,8.6,123.3,80.9,135.4c78.5,13.1,158.1,2.4,237,5.9
					c69.8,3.1,139.2,5,209.5,8.4c164.2,8.1,329,4.8,492.7,22.2c4.9,0.5,9.8,1.1,14.7,1.6c96.7,11,190.1,22.7,284.7,46
					c104.5,25.7,208.3,54,312.1,82.3c69.4,18.9,140,38.6,211.8,36s146.6-31.3,186.8-90.9c33.9-50.2,38.7-113.8,42.4-174.2
					C2087.3,1199.6,2094.9,1066.7,2102,933.8z"/>
				<path id="Path_388" class="st2" d="M341.9,303.1c-0.7-4.2,4.9-12.8,11-12.6c2.4,0.1,4.8,0.7,7.2,0.6c6.5-0.3,9.8-5.4,12.3-9.5
					s7.5-8.9,13.8-7.9c9.1,1.5,13.7,13.5,24,4.5c6.8-5.9,7.3-14.1,14.9-19.8c5.3-3.9,13.8-6.2,20.8-4.1c9.2,2.8,12.6,11.9,22.4,13.5
					c10.8,1.8,18.6-6.5,22.1-12.4c4.2-7.2,5.8-15,9.3-22.4c3.3-6.8,10-15.9,22-15.7c10.1,0.2,14.6,6.6,19.6,11.7
					c6.5,6.6,19.9,30.4,35,27.5c5.9-1.1,8.8-5.8,14.1-7.9c8.5-3.4,19.4,1.3,24.6,7.1s7.2,12.8,13,18.3c1.6,1.6,3.5,2.8,5.7,3.4
					c8.1,2.2,15.7-4.6,24.4-5.1c5.6-0.2,11,1.9,15,5.9c3.4,3.4,5.3,7.5,8,11.3c0.7,1.2,1.7,2.1,2.9,2.8c3.8,2,9.2,0.3,13.8-0.5
					c11.5-2,24.6,3.3,27.9,11.3L341.9,303.1z"/>
				<path id="Path_389" class="st3" d="M1394.2,443.8c-0.6-3.4,3.9-10.1,8.7-10c1.9,0,3.8,0.5,5.8,0.5c5.1-0.3,7.8-4.3,9.8-7.6
					s5.9-7.1,10.9-6.3c7.2,1.2,10.8,10.7,19,3.6c5.4-4.7,5.8-11.2,11.8-15.7c4.2-3.1,10.9-5,16.5-3.2c7.3,2.2,10,9.5,17.8,10.7
					c8.6,1.4,14.8-5.1,17.5-9.9c3.3-5.7,4.6-11.9,7.4-17.7c2.6-5.4,8-12.6,17.5-12.5c8.1,0.1,11.6,5.2,15.6,9.3
					c5.1,5.3,15.8,24.1,27.8,21.9c4.7-0.9,7-4.6,11.2-6.3c6.8-2.7,15.4,1,19.5,5.6s5.7,10.2,10.3,14.5c1.3,1.3,2.8,2.2,4.5,2.7
					c6.4,1.8,12.4-3.7,19.3-4.1c4.4-0.2,8.8,1.5,11.9,4.7c2.7,2.7,4.2,6,6.3,8.9c0.6,0.9,1.4,1.7,2.3,2.2c3,1.6,7.3,0.3,11-0.4
					c9.1-1.6,19.6,2.6,22.1,8.9L1394.2,443.8z"/>
				<path id="Path_390" class="st4" d="M1103.4,187.2c-36.6,41.4-91.8,60.9-145.6,73.6S848.2,281.6,799,306.9
					C715.1,350,661.4,440.1,647.9,533.4c-5.3,37.1-5.9,77.4-28.4,107.4c-22.8,30.4-62.5,42.4-100.1,47.8s-76.7,6.3-111.3,22.1
					C337,743.1,305.8,828.9,304.1,907c-1.2,51.8,3.6,112.7-36.5,145.6c-31.8,26-77.7,21.5-118,29.7c-45.5,9.2-85.6,38.2-111.6,76.3
					C8.6,1201.5,9.7,1238,11.3,1287"/>
			</g>
		</g>
	</g>
</g>
</svg>
