<svg xmlns="http://www.w3.org/2000/svg" xmlns:xlink="http://www.w3.org/1999/xlink" viewBox="0 0 2405.1 1333.07"><defs><style>.cls-1{fill:#1d7e8e;}.cls-2{fill:#00a09d;}.cls-10,.cls-12,.cls-3,.cls-30{fill:none;stroke-miterlimit:10;}.cls-3{stroke:#cbcbcb;stroke-width:8px;}.cls-4{fill:#afb9c5;}.cls-5{fill:#f2f2f2;}.cls-6{fill:#dde3e9;}.cls-7{fill:#c5cfd6;}.cls-8{fill:#89c5cc;}.cls-9{clip-path:url(#clip-path);}.cls-10{stroke:#00a09d;}.cls-10,.cls-12{stroke-width:5px;}.cls-11{clip-path:url(#clip-path-2);}.cls-12{stroke:#1d7e8e;}.cls-13{fill:#9d786a;}.cls-14{fill:#94624f;}.cls-15{fill:#231f20;opacity:0.1;}.cls-16{fill:#0b2d4e;}.cls-17{fill:#d74034;}.cls-18{fill:#ef5132;}.cls-19{fill:#66a5af;}.cls-20{fill:#66bbc4;}.cls-21{fill:#8ed2cc;}.cls-22,.cls-28{fill:#fff;}.cls-22{opacity:0.2;}.cls-23{fill:#061f33;}.cls-24{fill:#73b8d4;}.cls-25{fill:#f8a17a;}.cls-26{fill:#e5785c;}.cls-27{fill:#b8d1ce;}.cls-29{fill:#d5eff7;}.cls-30{stroke:#0b2d4e;stroke-width:3px;}</style><clipPath id="clip-path"><path class="cls-1" d="M454,342.38c15.89-.09,31.31-2.14,42.2-17.72,21.36-30.6,54-58.07,90.54-27,21.09,17.95,5.23,54.86,23.39,72.62,16.05,15.7,36.46,13.11,44.67,39.17,12.08,38.34-26,71.93-38.21,105.09-10.25,27.82,12.81,38.42,23.18,60.1,8,16.71,3.88,34.62-4.83,50.6-15.35,28.17-49.38,50.86-41.5,87.34,6.58,30.45,12.7,57.59-14.16,80.66-18.42,15.82-52.59,30.24-50,59.52.92,10.36,8.09,19.19,10.06,29.41,3.11,16.16-7.36,31.9-19.52,43-27.67,25.25-52,49.06-72.7,80.82-8.86,13.58-44.32,44.22-30.15,62.78-25.75-33.73-53-66.44-76.38-101.9-19.25-29.16-48.27-71.82-28.52-107.74,6.15-11.17,17.57-19.5,20.7-31.86,5.66-22.32-16.27-43-24.43-62-12.8-29.82-3.4-64.44,19.14-86.82,10.67-10.59,22.25-22.24,23.82-37.19,1.71-16.32-8.53-31.54-13.17-46.6a232.1,232.1,0,0,1-8.51-43.06c-1.1-10.18-1.53-20.59.86-30.55,4.56-18.94,21.61-29.47,34.23-42.9,30.05-32,14.26-69.6,27.39-106.78C403.93,338,429.54,342.52,454,342.38Z"/></clipPath><clipPath id="clip-path-2"><path class="cls-2" d="M258.9,575.48c-11.54,2.13-23,2.78-33.06-7-19.73-19.23-47.19-34.64-69.41-7-12.82,15.93,3.8,40.51-6.91,55.91-9.47,13.61-24.64,14.55-27,34.59-3.45,29.48,28.81,48.58,42.26,70.94,11.29,18.76-4,29.65-8.49,46.81-3.48,13.23,2,25.64,10.51,36,15,18.31,42.86,30.06,42.19,57.61-.56,23-1.24,43.53,21.44,56.55,15.55,8.93,42.33,14.66,44.5,36.26.76,7.64-3.22,15-3.23,22.72,0,12.16,9.75,22.12,20.11,28.49,23.57,14.48,44.49,28.39,63.92,48.56,8.31,8.62,38.27,25.94,30.56,41.36,14-28,29.23-55.52,41.3-84.49,9.93-23.82,25.07-58.77,5.77-82.09-6-7.26-15.44-11.72-19.42-20.25-7.19-15.41,5.85-33.45,9.14-48.36,5.15-23.39-6.45-47.21-25.91-60.32-9.2-6.21-19.21-13-22.41-23.68-3.51-11.6,1.81-24.06,3.1-35.63a172,172,0,0,0,.21-32.41c-.61-7.54-1.74-15.15-4.86-22-5.92-13.11-19.75-18.38-30.76-26.38-26.23-19-20-48.52-34.65-73.67C294.65,565.39,276.69,572.19,258.9,575.48Z"/></clipPath></defs><title>pr11</title><g id="Layer_2" data-name="Layer 2"><g id="Layer_3" data-name="Layer 3"><g id="Lamp"><path id="Body" class="cls-3" d="M2071.49,273.71l51.92-51.95a22.37,22.37,0,0,1,31.64,0h0l138.23,138.29a44.78,44.78,0,0,1,13.1,31.63v916"/><rect id="Lamp_Base" data-name="Lamp Base" class="cls-4" x="2222.5" y="1304.91" width="164.99" height="19.57" rx="8.39"/><g id="Lamp_Top" data-name="Lamp Top"><path id="Lamp-2" class="cls-4" d="M2102.72,243.22h0a92.28,92.28,0,0,1,0,130.51l-55.37,55.36h0l-130.5-130.5h0l55.37-55.37A92.29,92.29,0,0,1,2102.72,243.22Z"/><ellipse id="Lamp-3" class="cls-5" cx="1984.31" cy="362.34" rx="18.18" ry="92.28" transform="translate(324.98 1509.25) rotate(-45)"/></g></g><g id="Big_Leaf_Plant" data-name="Big Leaf Plant"><g id="Big_Ass_Leaf" data-name="Big Ass Leaf"><path id="leaf" class="cls-6" d="M132.15,662.6a47.34,47.34,0,0,1,24,2.52c15.84,6.71,20.34,25.45,20.13,40.65-.23,16.37-3.71,34.25,8.74,47.44,5.72,6.07,12.84,10.7,18.46,16.88a80,80,0,0,1,14.2,22.26c6.4,14.89,9.54,32.41,3.69,48-5.16,13.76-18.13,26.17-15.33,41.82,2.92,16.33,19.37,28.79,29.66,41,11.64,13.76,22.37,31.33,24.11,49.37,1.68,17.29-5.83,34.77-17.38,47.84-23.07,26.11-57.75,38.91-92.72,38.83-14.85,0-31.66-.7-44.47-8.68a24.5,24.5,0,0,1-8.4-9.08,29.5,29.5,0,0,0-8.12-8.13,48.16,48.16,0,0,1-15.48-20.67c-12.69-31.41-2.55-70.27,15.21-98.16,4.21-6.6,7.66-13,5.61-20.84-2.14-8.24-7.38-15.64-12-22.72a184.55,184.55,0,0,1-13.4-21.2,48.17,48.17,0,0,1-4.14-24.85,84.55,84.55,0,0,1,18.21-44.36c9.57-12.61,20.82-24.66,20.84-41.17,0-17.5-11.67-33.06-6.68-50.85a33.84,33.84,0,0,1,12.88-19.34C116.16,664.91,124.62,663.52,132.15,662.6Z"/><path id="middle_thing" data-name="middle thing" class="cls-7" d="M126.92,690.57a4,4,0,0,1,4.68-3.25,3.69,3.69,0,0,1,.45.11c2.89.81,2.83,3.5,2.76,5.91a79.33,79.33,0,0,0,2.61,21.74c3.69,14.92,10.51,28.65,15.92,43s7.94,29.08,4.77,44.22c-3,14.28-7.68,28.18-10.74,42.48-2.7,12.6-5.56,25.89-1.46,38.46,4,12.09,12.68,21.94,19,32.88a155.11,155.11,0,0,1,19.56,73.57,138,138,0,0,1-2.75,35.87c-1.6,6.78-3.76,15.94-9.56,20.61-2.68,2.15-7.26,2.9-9.51-.28-2.12-3-.26-7.64.41-10.83a164.29,164.29,0,0,0,2.8-42,151.91,151.91,0,0,0-6.56-40.15,136.07,136.07,0,0,0-17.1-33.43c-7.24-10.74-14.76-21.5-17.75-34.23-3-12.93-.56-26.08,2.73-38.77,3.49-13.42,8.06-26.44,12.79-39.49a69.3,69.3,0,0,0,3.69-38C138.61,742.64,125.16,718,126.92,690.57Z"/></g><g id="Big_Ass_Leaf-2" data-name="Big Ass Leaf-2"><path id="leaf-2" class="cls-6" d="M343.65,694.51A59.93,59.93,0,0,1,370.47,710c15,16.19,10.42,40.66,2.12,58.54-8.93,19.24-22.45,38.59-14.82,60.65,3.51,10.15,9.4,19.34,12.73,29.57a103.06,103.06,0,0,1,4.89,33.71c-.36,20.95-5.93,43.3-21.06,58.72-13.32,13.59-35.1,21.54-40.08,41.48-5.19,20.82,7.51,44.13,13.15,63.86,6.38,22.32,9.66,48.69,2.19,70.93-7.16,21.33-25.23,38.09-45.68,47.54-40.86,18.88-88.31,16-129.28-2.31-17.4-7.77-36.76-17.31-47.57-33.41a31.6,31.6,0,0,1-5.06-15.1,37.81,37.81,0,0,0-5.25-13.86,62.24,62.24,0,0,1-7.21-32.5c1.72-43.74,34.15-84.42,69.73-108.17,8.43-5.63,15.83-11.35,17.6-21.73,1.84-10.84-.39-22.34-2.09-33.11s-4.3-21.25-4.51-32a62.74,62.74,0,0,1,8.27-31.55c10.07-18.59,26.23-32.69,44.8-43,17.9-9.92,37.45-18.33,46.21-37.84,9.28-20.69,3.79-45.17,19-63.62,6.32-7.64,15.17-14.42,25.35-16.17C323.68,688.92,334.33,691.68,343.65,694.51Z"/><path id="middle_thing-2" data-name="middle thing-2" class="cls-7" d="M323.4,728.7a5.15,5.15,0,0,1,7.13-1.44c.18.13.36.26.52.4,3,2.47,1.48,5.64.13,8.45a104,104,0,0,0-8.33,27.12c-3.49,19.6-2.71,39.43-3.89,59.24s-5.95,38.6-17.58,54.87c-11,15.34-23.74,29.37-34.81,44.68-9.75,13.51-20.06,27.74-21.84,44.78-1.72,16.39,3.33,32.64,5,48.88,3.35,33.62-3,66.37-15.66,97.37a179.84,179.84,0,0,1-22,41c-5.42,7.19-12.74,16.9-22,19.4-4.26,1.15-10-.37-11-5.33-.91-4.66,3.69-9.18,6.15-12.61a214.84,214.84,0,0,0,25.26-48.25,198.73,198.73,0,0,0,13.36-51,177.56,177.56,0,0,0-2.51-48.54c-2.83-16.51-6-33.21-2.82-49.85,3.22-16.9,13-31.18,23.49-44.46,11.11-14.05,23.28-27.09,35.64-40.06a90.55,90.55,0,0,0,24.25-43.13C309.81,796.48,307,760.21,323.4,728.7Z"/></g><g id="Big_Ass_Leaf-3" data-name="Big Ass Leaf-3"><path id="leaf-3" class="cls-7" d="M37.21,818.71c16.48,0,31,8.74,41,21.14,11.69,14.51,14,32.24,18.79,49.53a44.26,44.26,0,0,0,13.54,23c6.48,5.32,14.7,6.39,22.45,9a52.35,52.35,0,0,1,32.93,33c6,18.62-.36,37.4.74,56.27,1,17.33,18.1,28.14,31.85,36.45,13.55,8.19,25.76,15.86,29.85,31.82,4.33,16.92,5.78,35.82-.22,52.54-10,27.84-39.2,40.1-67.44,42-25.62,1.72-57.84-1-77.08-19.58-11.51-11.13-15.68-26.69-15.16-42.18a128.47,128.47,0,0,1,4.69-28.48,128,128,0,0,0,4.78-20c1.79-18.13-15-21.62-29.23-26.59A69.56,69.56,0,0,1,9,1001.67c-8.22-15.51-11.67-32.91-6.74-50a58.29,58.29,0,0,1,13.26-23.36c2.73-3,6.57-5.43,9-8.54a11.49,11.49,0,0,0,1-10.06C21.91,894,10.52,881,6.43,865.32c-3.66-14.15-1.49-31.78,11.47-40.91A33.9,33.9,0,0,1,37.21,818.71Z"/><path id="middle_thing-3" data-name="middle thing-3" class="cls-4" d="M59.67,859.66C77.14,878.28,81.89,903.51,83.28,928c.78,13.72,0,28.19,4,41.5,3.45,11.39,11.53,20.1,19.87,28.33,16.78,16.57,35.49,33.41,40.4,57.39,2.88,14.07.94,28.61,4.92,42.53a117.27,117.27,0,0,0,17.73,35.76c6.24,8.6,14.37,15.18,21.19,23.21,2.08,2.44,5.06,6,4.2,9.5-1,4-6.16,5.33-9.82,4.7-8.53-1.49-15.71-9.63-21.28-15.55a133.8,133.8,0,0,1-20.72-28.4A119.59,119.59,0,0,1,130.35,1090c-2.23-13.49-1.12-27.56-6.21-40.52-8.58-21.81-29.37-34.67-44.42-51.65C61,976.7,63.78,950.35,65.7,924.31c1-14.31,2.1-30.48-5.13-43.54-2.76-5-8.92-9.64-10.1-15.31C49.38,860.26,55.31,855,59.67,859.66Z"/></g><path id="Base" class="cls-8" d="M78.3,1165.46c0,106.43,17.37,162.19,109.06,162.19s109.05-55.76,109.05-162.19Z"/></g><path class="cls-1" d="M454,342.38c15.89-.09,31.31-2.14,42.2-17.72,21.36-30.6,54-58.07,90.54-27,21.09,17.95,5.23,54.86,23.39,72.62,16.05,15.7,36.46,13.11,44.67,39.17,12.08,38.34-26,71.93-38.21,105.09-10.25,27.82,12.81,38.42,23.18,60.1,8,16.71,3.88,34.62-4.83,50.6-15.35,28.17-49.38,50.86-41.5,87.34,6.58,30.45,12.7,57.59-14.16,80.66-18.42,15.82-52.59,30.24-50,59.52.92,10.36,8.09,19.19,10.06,29.41,3.11,16.16-7.36,31.9-19.52,43-27.67,25.25-52,49.06-72.7,80.82-8.86,13.58-44.32,44.22-30.15,62.78-25.75-33.73-53-66.44-76.38-101.9-19.25-29.16-48.27-71.82-28.52-107.74,6.15-11.17,17.57-19.5,20.7-31.86,5.66-22.32-16.27-43-24.43-62-12.8-29.82-3.4-64.44,19.14-86.82,10.67-10.59,22.25-22.24,23.82-37.19,1.71-16.32-8.53-31.54-13.17-46.6a232.1,232.1,0,0,1-8.51-43.06c-1.1-10.18-1.53-20.59.86-30.55,4.56-18.94,21.61-29.47,34.23-42.9,30.05-32,14.26-69.6,27.39-106.78C403.93,338,429.54,342.52,454,342.38Z"/><g class="cls-9"><path class="cls-10" d="M413.83,1106.82c-11.16-127.89-.91-256.79,22.71-382.74,22.54-120.16,52.12-240.72,97-354.62a1091.06,1091.06,0,0,1,50.36-110.33"/><path class="cls-10" d="M684.84,430.62a771.76,771.76,0,0,0-178.12,90.31c-14,9.55-21.77,12.47-33.43,24.76"/><path class="cls-10" d="M443.44,682.7a527.35,527.35,0,0,1,199.91-77.17"/><path class="cls-10" d="M419.54,847.68A450.7,450.7,0,0,1,617,748.58"/><path class="cls-10" d="M476.41,541.47A560.45,560.45,0,0,0,427,345.3"/><path class="cls-10" d="M444.2,677.12A494.7,494.7,0,0,0,323.78,516.21"/><path class="cls-10" d="M415.8,852.37a185.65,185.65,0,0,0-20.44-53.89c-11.13-19.49-25.69-36.78-40.52-53.62q-16-18.21-32.58-35.91"/></g><path class="cls-2" d="M258.9,575.48c-11.54,2.13-23,2.78-33.06-7-19.73-19.23-47.19-34.64-69.41-7-12.82,15.93,3.8,40.51-6.91,55.91-9.47,13.61-24.64,14.55-27,34.59-3.45,29.48,28.81,48.58,42.26,70.94,11.29,18.76-4,29.65-8.49,46.81-3.48,13.23,2,25.64,10.51,36,15,18.31,42.86,30.06,42.19,57.61-.56,23-1.24,43.53,21.44,56.55,15.55,8.93,42.33,14.66,44.5,36.26.76,7.64-3.22,15-3.23,22.72,0,12.16,9.75,22.12,20.11,28.49,23.57,14.48,44.49,28.39,63.92,48.56,8.31,8.62,38.27,25.94,30.56,41.36,14-28,29.23-55.52,41.3-84.49,9.93-23.82,25.07-58.77,5.77-82.09-6-7.26-15.44-11.72-19.42-20.25-7.19-15.41,5.85-33.45,9.14-48.36,5.15-23.39-6.45-47.21-25.91-60.32-9.2-6.21-19.21-13-22.41-23.68-3.51-11.6,1.81-24.06,3.1-35.63a172,172,0,0,0,.21-32.41c-.61-7.54-1.74-15.15-4.86-22-5.92-13.11-19.75-18.38-30.76-26.38-26.23-19-20-48.52-34.65-73.67C294.65,565.39,276.69,572.19,258.9,575.48Z"/><g class="cls-11"><path class="cls-12" d="M393.88,1124.42C384.27,1030.11,359,938,324.42,849.93c-33-84-71.12-167.4-119.42-243.81a805.07,805.07,0,0,0-51.8-73.06"/><path class="cls-12" d="M103.7,671.43a570.07,570.07,0,0,1,141.7,40.86c11.47,5,17.52,6,27.68,13.33"/><path class="cls-12" d="M313.7,820.87A389.28,389.28,0,0,0,158,792.57"/><path class="cls-12" d="M353.87,937.24a332.8,332.8,0,0,0-156.94-44.56"/><path class="cls-12" d="M270.23,723a413.89,413.89,0,0,1,8.7-149.13"/><path class="cls-12" d="M312.37,816.93a365.44,365.44,0,0,1,65.08-133.39"/><path class="cls-12" d="M357.23,940.12a136.92,136.92,0,0,1,7.37-41.92c5.37-15.68,13.54-30.23,22-44.5q9.09-15.42,18.66-30.56"/></g><polygon class="cls-13" points="506.07 1091.76 270.28 1091.76 311.65 1327.72 464.7 1327.72 506.07 1091.76"/><rect class="cls-14" x="241.42" y="1025.52" width="293.52" height="66.23"/><polygon class="cls-15" points="275.77 1123.05 500.58 1123.05 506.07 1091.76 270.28 1091.76 275.77 1123.05"/><rect class="cls-16" x="2152.17" y="570.34" width="10.79" height="364.16"/><rect class="cls-16" x="2067.32" y="906.54" width="180.49" height="27.96"/><path class="cls-16" d="M2093,878.59h129.12a9.5,9.5,0,0,1,9.5,9.5v18.46a0,0,0,0,1,0,0H2083.5a0,0,0,0,1,0,0V888.09A9.5,9.5,0,0,1,2093,878.59Z"/><polygon class="cls-17" points="2273.86 661.81 2039.31 661.81 2098.16 431.67 2215 431.67 2273.86 661.81"/><polygon class="cls-18" points="2194.84 661.81 2120.29 661.81 2135 431.67 2180.12 431.67 2194.84 661.81"/><rect class="cls-13" x="2010.77" y="934.5" width="394.33" height="32.37"/><rect class="cls-13" x="2010.78" y="1193.45" width="394.33" height="32.37"/><rect class="cls-13" x="2010.77" y="966.87" width="394.33" height="101.52"/><rect class="cls-14" x="2010.77" y="966.87" width="33.36" height="359.01"/><rect class="cls-14" x="2371.74" y="966.87" width="33.36" height="359.01"/><rect class="cls-14" x="2057.87" y="980.6" width="300.15" height="72.59"/><ellipse class="cls-2" cx="2341.37" cy="719.35" rx="10.48" ry="8.65" transform="matrix(0.5, -0.87, 0.87, 0.5, 547.7, 2387.34)"/><path class="cls-1" d="M2341.41,723.56a6.21,6.21,0,0,1-3.51-1.69,6.42,6.42,0,0,1-.47-7.84l2.42-3.56a16.87,16.87,0,0,0-5,3.81c-6.19,6.11-1.4,17.71,7.85,14.76,1.71-.55,4.43-2.65,2.27-4.26A8.86,8.86,0,0,0,2341.41,723.56Z"/><ellipse class="cls-2" cx="2326.22" cy="744.6" rx="23.27" ry="20.49" transform="translate(720.46 2585.04) rotate(-66.65)"/><path class="cls-1" d="M2334.24,763.23a7.57,7.57,0,0,1-3,1.68,26.65,26.65,0,0,1-4.16,1.2c-4.27.73-10.57-.28-14.27-2.53-8.49-5.15-8.92-19-5.41-27.11,5.09-11.8,17.64-17.73,28-13.24-1.4-.61-5.53,1.4-6.86,2a17.63,17.63,0,0,0-5.21,3.63,19,19,0,0,0-4.8,10c-.88,4.86.3,8.21,3.2,12.24a26.43,26.43,0,0,0,8.8,7.79c1.22.67,3.92,1.17,4.18,2.75A1.87,1.87,0,0,1,2334.24,763.23Z"/><circle class="cls-2" cx="2285.24" cy="755.67" r="17.66"/><path class="cls-2" d="M2279.72,733.5a8.36,8.36,0,1,1-11-4.43A8.35,8.35,0,0,1,2279.72,733.5Z"/><ellipse class="cls-2" cx="2313.69" cy="789.04" rx="28.45" ry="36.02"/><path class="cls-1" d="M2313.69,825.07c-15.71,0-28.45-16.13-28.45-36s12.74-36,28.45-36C2294.44,774.66,2295.91,812.24,2313.69,825.07Z"/><path class="cls-1" d="M2294.7,766.66a5,5,0,0,1-.44,2.25,9.84,9.84,0,0,1-1.6,3c-3.12,3.66-10.08,1.87-13.79.25-4.35-1.89-8.27-5.33-9.74-10-1.82-5.71-1.58-13.1,2.41-18a6.47,6.47,0,0,1,4.46-2.48c-1.23.07.37,6.74.55,7.59a19.22,19.22,0,0,0,4.09,8.87c2.34,2.63,5.08,3.22,8.34,4C2291.4,762.79,2294.37,763.79,2294.7,766.66Z"/><path class="cls-1" d="M2273.58,742.16c-2.34,2.67-4.32,3-7.07.65a7.86,7.86,0,0,1-2.46-7.36c.33-2,2-5,3.9-5.92,1.46-.72,3.54.46,4.87-.39-3.68,2.35-5.37,7.38-1.42,10.57.67.54,1.46.92,2.15,1.42a.72.72,0,0,1,.3.35C2273.93,741.72,2273.75,742,2273.58,742.16Z"/><polygon class="cls-13" points="2350.78 934.5 2268.75 934.5 2259.64 844.27 2359.89 844.27 2350.78 934.5"/><rect class="cls-14" x="2256.55" y="810.27" width="106.43" height="34"/><rect class="cls-19" x="947.12" y="883.57" width="636.29" height="258.61" transform="translate(2530.52 2025.76) rotate(180)"/><path class="cls-20" d="M666.8,1012.1h526.57c43.17,0,78.16-38.65,78.16-86.32V554.67c0-47.67-35-86.32-78.16-86.32,0,0-145.62,18.66-259.92,18.66S666.8,468.35,666.8,468.35c-43.17,0-78.17,38.65-78.17,86.32V925.78C588.63,973.45,623.63,1012.1,666.8,1012.1Z"/><path class="cls-19" d="M754.51,1147.91h343.33c95.24,0,172.06-87.06,170.67-193.42,0,0,1.27-303.93.14-374.57-.14,374.57-684.81,374.57-680,2.68-1.35,92.76-4.85,371.89-4.85,371.89C582.45,1060.85,659.27,1147.91,754.51,1147.91Z"/><path class="cls-21" d="M1191.23,468.35H666.52s116.54,49,265.66,49S1191.23,468.35,1191.23,468.35Z"/><path class="cls-14" d="M1960.57,1327h0c10-3,15.42-14.31,12.36-25.49l-41.52-171.65-56.12,17,60.85,165.79C1939.8,1323.69,1950.62,1330,1960.57,1327Z"/><path class="cls-14" d="M586.24,1327h0c-10-3-15.42-14.31-12.36-25.49l41.52-171.65,56.11,17-60.84,165.79C607,1323.69,596.19,1330,586.24,1327Z"/><path class="cls-20" d="M1348.26,1006.38H1877.7c43.4,0,78.59-38.65,78.59-86.33V549c0-47.68-35.19-86.33-78.59-86.33,0,0-146.42,18.66-261.34,18.66s-268.1-18.66-268.1-18.66c-43.41,0-78.59,38.65-78.59,86.33v371.1C1269.67,967.73,1304.85,1006.38,1348.26,1006.38Z"/><path class="cls-19" d="M1438.88,1142.19h345.19c95.76,0,173-87.06,171.6-193.43,0,0,1.28-303.93.14-374.57-.14,374.57-688.52,374.57-683.64,2.68-1.36,92.77-4.88,371.89-4.88,371.89C1265.89,1055.13,1343.12,1142.19,1438.88,1142.19Z"/><path class="cls-20" d="M1583.41,1114.15c-137.64-.12-835,.27-972.69.27-3.55,0-61.24-60.17-75.72-90-15.71-32.41-23.82-62.05-32.9-94C487,877.13,471.28,801.09,503,750.6c13.83-22.06,41.83-37.17,66.43-28.6,34.47,12,45.62,49.6,50.68,82.21C632.23,882.67,666.58,964.68,750,987c45.85,12.28,95.3,9.5,142.47,9.53,6.11,0,690.91.79,690.9-2Q1583.4,1054.34,1583.41,1114.15Z"/><path class="cls-20" d="M1566.78,1114.15c137.64-.12,232.63.27,370.26.27,3.56,0,61.25-60.17,75.73-90,15.7-32.41,23.82-62.05,32.9-94,15.12-53.24,30.82-129.28-.85-179.77C2031,728.54,2003,713.43,1978.39,722c-34.48,12-45.62,49.6-50.68,82.21-12.18,78.46-46.53,160.47-129.94,182.82-45.85,12.28-95.31,9.5-142.47,9.53-6.12,0-88.49.79-88.49-2Z"/><path class="cls-20" d="M1271,883.57c0,30.92,33.32,117.29,311.87,117.29s311.87-86.37,311.87-117.29-139.63-56-311.87-56S1271,852.66,1271,883.57Z"/><path class="cls-21" d="M1271,883.57c46.25-29.34,576.07-29.75,623.74,0,0-30.91-139.63-56-311.87-56S1271,852.66,1271,883.57Z"/><path class="cls-19" d="M1271.53,883.57c0,30.92,33.32,117.29,311.88,117.29s311.87-86.37,311.87-117.29C1858.75,1000.86,1304.31,1000.86,1271.53,883.57Z"/><path class="cls-20" d="M645.37,883.57c0,30.92,33.32,117.29,311.88,117.29s311.87-86.37,311.87-117.29-139.63-56-311.87-56S645.37,852.66,645.37,883.57Z"/><path class="cls-21" d="M645.37,883.57c46.26-29.34,576.08-29.75,623.75,0,0-30.91-139.63-56-311.87-56S645.37,852.66,645.37,883.57Z"/><path class="cls-19" d="M645.92,883.57c0,30.92,33.32,117.29,311.88,117.29s311.87-86.37,311.87-117.29C1233.13,1000.86,678.69,1000.86,645.92,883.57Z"/><path class="cls-21" d="M1878,462.62H1350.42s117.17,49,267.1,49S1878,462.62,1878,462.62Z"/><rect class="cls-14" x="611.26" y="1114.42" width="1325.79" height="33.49" transform="translate(2548.3 2262.33) rotate(180)"/><path class="cls-2" d="M599.79,716.15c1.68,8.11,25.49,97.14,26.94,109s-1.15,49.15-1,42.51-.7,14.06,12.35,12.18c6.51-.94,146.07-28.6,196.47-35.91,50.55-7.34,101.76-6.61,106.72-7.44,9.91-1.65,13.49-7,17-22.28s-18-77.49-21.25-97.58,4.41-33.36,2.23-43.23c-2.89-13.06-15.37-17.3-26.12-16-6.15.76-69.34,13.21-118.64,19.27-48.64,6-173.2,17.86-178.29,18.49C606,696.43,598.12,708.05,599.79,716.15Z"/><path class="cls-1" d="M600.68,716.05c1.68,8.1,25.48,97.13,26.94,109s-1.15,49.15-1,42.51-.69,14.07,12.35,12.18c6.52-.94,146.07-28.6,196.48-35.91s101.76-6.61,106.72-7.43c9.91-1.66,13.49-7,17-22.28,1.6-6.94-2-23.57-6.65-41.53-106.44,52.7-324,112.41-323.09-78-6.53.2-10.78.3-12.32.49C606.86,696.32,599,707.94,600.68,716.05Z"/><path class="cls-22" d="M939.28,673.39c-2.89-13.06-15.37-17.3-26.12-16-6.15.76-69.34,13.21-118.64,19.27-26.24,3.23-138.25,16.88-153.93,17.55C702.3,768.1,941.46,683.26,939.28,673.39Z"/><path class="cls-16" d="M1566.25,795.83c-30.18-1.43-60.27,3.42-90.09,8.26-9.42,1.52-19.39,6.75-12.3,18,3.9,6.18,12,8,19.23,8.82,31.16,3.57,63.17-.38,94.49-.33"/><path class="cls-23" d="M1788.26,754c4.58,28-8.55,68.43-39.11,76.6-12.31,3.3-27.14,2.13-39.86,2.06q-23.22-.15-46.43-.34l-91.22-.65c-20-.15-41.34-.66-58.07-11.7-19.87-13.12-29.77-37.38-16.55-58.26,11.35-17.93,32.58-28.92,52.83-33.29,33.93-7.31,69.17,2.38,102.89-3.7a98,98,0,0,0,16.22-4.32c30.45-11,60.7-26.25,91.78-8.23C1775.66,720.81,1785.47,737,1788.26,754Z"/><path class="cls-16" d="M1536.41,693.73c-5.07-5.37-8.19-6.42-11.26,1.22-3.54,8.81-5.93,18.4-5.82,27.95a83.41,83.41,0,0,0-34.91,16.63c-7.82-5.56-17.11-9.06-26.42-11.16-8-1.81-8.93,1.36-7.39,8.58,1.89,8.92,4.94,17.53,7.88,26.15,1.84,5.4,3.51,10.85,5.39,16.22a38.72,38.72,0,0,0,7.17,14.9c8.88,11,26.54,17.45,40.24,19.26,15.5,2,30.18-1.91,40.62-13.69,9.36-10.57,15.75-25,18.19-38.83a46.83,46.83,0,0,0-2-23.91c-3.11-8.55-9.25-14.78-14.6-21.93S1542.69,700.37,1536.41,693.73Z"/><path class="cls-16" d="M1765.4,731.75c29.18,27.78,26.12,59.8,10,88.12-17.88,31.41-47.32,52.68-80.16,66.52-38.78,16.34-83.17,24.7-124.7,14.9-8.35-2-17.48-6.07-19.93-14.29-7.28-24.31,30.65-23.88,44.17-25,27.8-2.37,57.25-2.65,84.29-11.69,29.66-9.92,50.79-31.09,65.62-58.17"/><path class="cls-16" d="M1786.54,776.52a59.48,59.48,0,0,0-12.67-36.29c-20.65-26-60.84-26.78-88.51-12.71-31.74,16.15-36.77,58.91-24.34,89,.57,1.38-11.12,1-12.1,1.05-8.39.59-25.76-1-29.11,9.27-2.24,6.89,2.36,16.21,9.28,18.44a29.32,29.32,0,0,0,9,.93c21.74,0,43.48,0,65.22.08,17,0,29.88-3.12,40.08-17.64,5.31-7.56,9.33-16,15-23.3"/><ellipse class="cls-23" cx="1526.56" cy="788.68" rx="7.17" ry="6.17" transform="translate(-181.77 604.25) rotate(-21.16)"/><path class="cls-24" d="M1563.87,727.87a56.21,56.21,0,0,0,3.56,5.38,17.46,17.46,0,0,1,1.63,2.91,20.91,20.91,0,0,1,1,3.21c.5,2.15.81,4.32,1.11,6.45s.54,4.34.65,6.53a63.27,63.27,0,0,1-.76,13.18,65,65,0,0,1-9.42,24.59,60.37,60.37,0,0,1-8.27,10.29,55,55,0,0,1-10.32,8.17,25.85,25.85,0,0,1-6.07,2.66,14.29,14.29,0,0,1-6.52.35c4.36-.05,8.2-2.11,11.5-4.64a53.14,53.14,0,0,0,4.77-4.12c.75-.74,1.52-1.45,2.23-2.23s1.44-1.52,2.13-2.32a68.24,68.24,0,0,0,7.33-10.16,69.88,69.88,0,0,0,5.45-11.25,72.25,72.25,0,0,0,4.84-24.48c.06-2.11,0-4.16-.14-6.33s-.18-4.26-.43-6.34a18.25,18.25,0,0,0-.55-3,20,20,0,0,0-1.14-2.9A39.63,39.63,0,0,1,1563.87,727.87Z"/><path class="cls-16" d="M1214.18,871.52a233.1,233.1,0,0,1-25.53,10.41A538,538,0,0,1,1069.44,909c-42.41,4.66-87.37,3.75-124.93-16.49-62.31-33.59-54.64-92.73-54.63-153a16.86,16.86,0,0,1,16.86-16.86H1186c15,0,31.7-2.09,46.58,0,8.42,1.18,15.52,1.82,19.3,11.35,2.64,6.69,1,21.55,2.2,29.17,4.42,28.37,10.8,64.41-10.44,87.32C1235.36,859.45,1225.16,866.12,1214.18,871.52Z"/><path class="cls-25" d="M932.05,679.37c-1.23-2.77-2.47-5.6-3.77-8.52a420,420,0,0,1-29.6-95.21c-2.18-11.81-4.4-24.73-13.42-32.66-12.49-11-36.82-9.55-52.28-7.48-7.23,1-14.79,3.46-19.15,9.3-7.23,9.68-6.51,31.53-6.79,43.19-1.73,70.89,54.31,129.5,99.94,177.34,8.79,9.21,18.33,18.52,30.5,22.25s27.63-.15,33-11.71c3.9-8.49,1.51-18.45-1.59-27.27-5.31-15.17-13.32-29.06-22.44-42.23C940.26,697.47,936.21,688.77,932.05,679.37Z"/><path class="cls-25" d="M1207.54,679.37c1.23-2.77,2.47-5.6,3.77-8.52a420,420,0,0,0,29.6-95.21c2.18-11.81,4.39-24.73,13.42-32.66,12.49-11,36.81-9.55,52.28-7.48,7.23,1,14.79,3.46,19.15,9.3,7.23,9.68,6.51,31.53,6.79,43.19,1.73,70.89-54.31,129.5-100,177.34-8.78,9.21-18.32,18.52-30.49,22.25s-27.63-.15-33-11.71c-3.91-8.49-1.51-18.45,1.58-27.27,5.32-15.17,13.33-29.06,22.44-42.23C1199.33,697.47,1203.38,688.77,1207.54,679.37Z"/><path class="cls-25" d="M847.57,450.9c-4.35,11-8.52,22-12.63,33-14.07,37.79-47.52,101.89-9.79,136.72,4.27,4,14.56,3.73,19.86,2.68,15.17-3,22.81-17.14,30.25-29.17,22.31-36.11,38.48-75.67,60-112.28,15.52-26.42,23.38-57.93,30.83-87.37C971,375,977.35,347.13,960.93,331a32,32,0,0,0-25.72-8.81c-5.6.65-10.93,2.79-16,5.28A58.3,58.3,0,0,0,907,335.15c-9.12,7.79-13.53,19.05-19,29.4-6.4,12.18-12.93,24.26-18.91,36.66C861.29,417.49,854.23,434.11,847.57,450.9Z"/><path class="cls-17" d="M864.54,391.26c20.85-38.24,48-72.63,89.75-86.66,12-4,26.76-5,35.74,3.88,5.62,5.56,7.66,14,7.18,21.87-.69,11.46-5.87,22.32-8.51,33.41A368.74,368.74,0,0,1,956.88,449c-3,5.81-25.28,68.8-23.49,70.36-14.68-12.75-35.59-28.64-53.15-37-4.67-2.22-47.22-24.12-48.45-21.35C841.66,438.81,852,414.34,864.54,391.26Z"/><path class="cls-25" d="M1296.84,450.9c4.35,11,8.52,22,12.63,33,14.07,37.79,47.52,101.89,9.79,136.72-4.27,4-14.56,3.73-19.86,2.68-15.17-3-22.81-17.14-30.25-29.17-22.31-36.11-38.48-75.67-60-112.28-15.52-26.42-23.38-57.93-30.83-87.37-4.93-19.48-11.27-47.37,5.16-63.51a32,32,0,0,1,25.71-8.81c5.6.65,10.93,2.79,16,5.28a58.3,58.3,0,0,1,12.23,7.69c9.12,7.79,13.53,19.05,19,29.4,6.4,12.18,12.93,24.26,18.91,36.66C1283.12,417.49,1290.18,434.11,1296.84,450.9Z"/><path class="cls-17" d="M1279.68,391.26c-20.85-38.24-48-72.63-89.75-86.66-12-4-26.76-5-35.74,3.88-5.62,5.56-7.66,14-7.18,21.87.69,11.46,5.87,22.32,8.51,33.41A368.74,368.74,0,0,0,1187.34,449c3,5.81,25.28,68.8,23.49,70.36,14.68-12.75,35.59-28.64,53.15-37,4.67-2.22,47.22-24.12,48.45-21.35C1302.56,438.81,1292.26,414.34,1279.68,391.26Z"/><path class="cls-18" d="M1220.38,684.89q-.42-1.71-.81-3.42c-9.86-42.68-11.3-86.73-10.07-130.35,1.21-42.77,10.74-84.86,12-127.65,1.43-49.35-7.17-119.46-68.93-125.16-25.54-2.35-51.22-5.11-77-5.41v-.06l-2.75,0-2.74,0v.06c-25.73.3-51.41,3.06-76.95,5.41-61.76,5.7-70.36,75.81-68.93,125.16,1.23,42.79,10.76,84.88,12,127.65,1.23,43.62-.21,87.67-10.07,130.35-.27,1.14-.53,2.28-.81,3.42-1.94,8-5.07,16.15-3.6,24.27,3.17,17.55,45.42,26.06,59.66,29.84,26.55,7,54,10.18,81.31,12.2l7.36.53v.38l2.8-.19,2.81.19v-.38l7.36-.53c27.34-2,54.76-5.16,81.31-12.2,14.24-3.78,56.49-12.29,59.66-29.84C1225.45,701,1222.32,692.91,1220.38,684.89Z"/><path class="cls-25" d="M1033.11,339.52c38.13,25.17,112.36,5.65,91.33-44.28-2.56-6.06-5.66-11.92-7.36-18.24-2.82-10.49-2.54-21.29-2.25-32,.34-12.46.44-24.95,1.12-37.38-13.94-2.61-25.25-3.91-40.06-3.37-12.25.44-24.49-.69-36.73,0a4.68,4.68,0,0,0-2.75.72,3.23,3.23,0,0,0-.91,2.33c-1.65,16.82,0,33.85-1.32,50.7-.72,9.43-2,20.21-6.31,28.95-6.63,13.46-16.47,25.95-7,40.55A42,42,0,0,0,1033.11,339.52Z"/><path class="cls-26" d="M1116.52,274.74c-2.2-9.75-1.62-20-1.35-29.84.34-12.46.44-24.94,1.12-37.38-13.94-2.61-25.25-3.91-40.06-3.37-12.25.45-24.49-.69-36.73-.05a4.68,4.68,0,0,0-2.75.72,3.23,3.23,0,0,0-.91,2.33c-1.65,16.82,0,33.85-1.32,50.7a109.89,109.89,0,0,1-2.06,14.41c1.93,1.49,3.88,2.92,5.89,4.23,15.13,9.89,35.51,13.18,53.61,8.64A83.56,83.56,0,0,0,1116.52,274.74Z"/><polygon class="cls-27" points="867.7 525.18 864.22 533.43 1278.96 533.43 1274.8 524.16 867.7 525.18"/><path class="cls-27" d="M1250.34,795.51H892.68L867.06,529.24a8.07,8.07,0,0,1,8-8.91h393a8.07,8.07,0,0,1,8,8.91Z"/><path class="cls-28" d="M1253.15,803H889.88l-26-266.27a8.13,8.13,0,0,1,8.08-8.92h399.16a8.13,8.13,0,0,1,8.09,8.92Z"/><rect class="cls-27" x="889.88" y="803.04" width="363.05" height="16.16"/><path class="cls-27" d="M1096.7,665.45a25.19,25.19,0,1,1-25.19-25.19A25.18,25.18,0,0,1,1096.7,665.45Z"/><path class="cls-25" d="M1051.73,861.36c-13.18,4.73-26.4,9.3-39.63,13.51-13.53,4.32-91.15,16.8-75.76,46.71,3,5.87,10.35,7.79,16.85,9,37.34,6.9,75.36,3.79,113.09-.75"/><path class="cls-29" d="M995.52,935.68c-16.06,4.62-33.29,6.93-48.33,10.38-6.79,1.55-13.58,3.11-20.45,4.2-10.91,1.75-22,2.34-33,2.92l-24.06,1.28c-4.37.23-8.94.42-12.92-1.4-4.75-2.18-7.8-6.82-10.6-11.24-5.55-8.76-12.13-17-16.76-26.32-3-6.1-6.19-12.07-2.87-18.76a31.45,31.45,0,0,1,6.88-8.51,58,58,0,0,1,11.1-8.64c13.42-7.65,27.66-4.29,41.9-1.4,15.08,3.07,30.15,6.57,45.55,7.48,16.58,1,33.1-1.08,49.56-2.79"/><path class="cls-17" d="M939.26,956.2l7.63-.49c6-.37,13.45-1.06,18.08-5.32a6.76,6.76,0,0,0,1.75-2.33c.9-2.25-.34-4.91-2.28-6.36a14.88,14.88,0,0,0-6.81-2.32c2.77.42,7-9.93,7.46-11.84a51.75,51.75,0,0,0,1.42-16.68c-.48-5.07-1.77-9.93-5.12-13.83-1.71-2-7.66-8.09-10.77-7.2,2.69-.77,4-4.13,3.24-6.82s-3.28-4.6-5.94-5.48a25,25,0,0,0-8.32-.83c-14.72.21-29.66,1.23-44.2-1.63a135.49,135.49,0,0,0-38.16-2.21,88.08,88.08,0,0,0-28.51,7.39,40.17,40.17,0,0,0-7,4c-29.5,21.1-7.38,58.19,18.42,70.35,19.07,9,38.62,6.57,58.84,4.74C912.44,958.17,925.78,957.11,939.26,956.2Z"/><path class="cls-16" d="M1140.46,220.52c-11.56,13.95-27.75,23.14-43.8,31.57-3.93,2.07-7.94,4.13-12.27,5.14-13.28,3.1-26.69-4.1-37.77-12.06a218.8,218.8,0,0,1-41.15-38.52C993.42,192,986.68,176,978.82,158.8s-9.65-34.77-8-53.72c1.72-19.46-9.16-36.85-4.25-56.53a56.25,56.25,0,0,1,21.13-31.43c5.69-4.17,12.3-7.28,19.31-8,15.69-1.7,29,9,44.52,9.69s30.69-5,45.72-8.38c13.13-3,27.51-4.63,40.53-.17,14.5,5,21.49,16,29.5,28.89,6.86,11,17.17,19.21,25.42,29,11,13,14.53,29.66,11,46.67a144.56,144.56,0,0,1-15.87,41.87c-6.36,11.09-13.29,22.78-20.79,33.29-5.71,8-12,13.91-18.63,20.89C1145.56,213.81,1143.15,217.26,1140.46,220.52Z"/><path class="cls-25" d="M1154.66,153.76c-.25-16-2.6-31.09-6.84-43.63-18.26-54.1-86.1-66.83-126.48-27.47-45,43.9-26.6,147.6,21.65,183.61a53.74,53.74,0,0,0,45.84,8.56C1135.76,261.74,1155.46,203.64,1154.66,153.76Z"/><path class="cls-26" d="M1165.75,110c-20.55-54.07-97.1-66.72-142.73-27.31-10.67,9.22-22,23.72-27,37-5.3,14.22-3.91,29.94-2.44,45,1.14-12.47,7-23.68,15.16-33a109.3,109.3,0,0,1,13.32-12.58c1.72-1.39,14.65-13.15,13.41-14.76,4.61,6,9.17,12,16.27,15,8.86,3.76,18.09,5.93,27.46,8,16.57,3.6,29.54,8.26,41.56,20.66,11.12,11.46,19.16,25.71,24.51,40.69,1.69,4.73,4.57,12,10.76,9.89,1.46-.5,14.21-10,14.34-10.66a165.9,165.9,0,0,0,3.05-34.31C1173.15,137.61,1170.51,122.48,1165.75,110Z"/><path class="cls-16" d="M1129.11,143c4.13,6.74,6.65,14.32,9.15,21.83,3.93,11.87,7,24.63,12.1,36,17.22-10.39,28.57-34.89,36.41-52.61,7-15.73,8.9-28.22,3-44.71-3.8-10.66-11.11-20.13-19.77-28.25-25-23.45-62.55-35.39-98.74-33-12.71.83-23.08,5.31-35,8.77-11,3.18-19.34,5.26-27.4,14.28-7.16,8-11.75,18-15.36,28.15-5.87,16.53-9.2,33.56-7.91,51.13.83,11.22.91,22.34,12,28.45q-.3-10-.59-20.06a48.56,48.56,0,0,1,.36-9.57,47.94,47.94,0,0,1,2.43-8.2c3-8.2,5.69-14.76,11.31-21.51,7.36-8.83,17.06-16.82,19.12-28.12,17.41,16.92,38,27.52,60.84,35.4,14.5,5,29.25,7.87,37.86,21.73Z"/><path class="cls-25" d="M1155,155.19c20.71-11.6,27.41,17.18,24,31.57a45.83,45.83,0,0,1-7.33,16.66c-4.89,6.61-19,17.65-27.19,10.55-3.74-3.23-4.18-8.76-4.34-13.7C1139.66,187.05,1141,163.05,1155,155.19Z"/><path class="cls-25" d="M1005.27,155.19c-20.71-11.6-27.41,17.18-24,31.57a45.83,45.83,0,0,0,7.33,16.66c4.89,6.61,19,17.65,27.19,10.55,3.74-3.23,4.18-8.76,4.34-13.7C1020.6,187.05,1019.31,163.05,1005.27,155.19Z"/><path class="cls-30" d="M975.74,108.31c-.18-8.44-5.79-15.62-10.07-22.9a61.51,61.51,0,0,1-7.68-38,50.31,50.31,0,0,1,24.14-37.3,42.07,42.07,0,0,1,32.65-4.51c10.21,2.91,18.51,10.72,28.42,13.44,22.2,6.07,45-12,66.07-16.34,20.92-4.33,43.28,2.71,53.74,23.73,4.12,8.3,5.94,17.9,11.33,25.34,9,12.43,26.32,16.54,33.48,30.23,11.7,22.36-11.55,55.06-23.38,72.44"/><path class="cls-24" d="M1028.22,42.28c17.24,1.11,34-2.62,50.86-6.05a172.08,172.08,0,0,1,25.74-2.62q6.48-.2,13,.07a81.33,81.33,0,0,1,13,1.29A36.49,36.49,0,0,1,1153,48.76c2.69,3.82,3.46,8.53,3.74,12.83s.19,8.59,1.07,12.63,2.89,7.64,5.46,11,5.41,6.71,7.38,10.67a32.62,32.62,0,0,1,3,12.67,89.22,89.22,0,0,1-.47,12.88,109.55,109.55,0,0,0-.29-12.82,31.63,31.63,0,0,0-3.45-12.09c-2-3.68-4.87-6.83-7.56-10.21s-5.24-7.24-6.18-11.65c-1.1-4.34-1.07-8.75-1.39-12.94s-1.08-8.29-3.43-11.54a23.15,23.15,0,0,0-4.14-4.46,34.78,34.78,0,0,0-5-3.65,37,37,0,0,0-11.54-4.35,78.63,78.63,0,0,0-12.56-1.36q-6.37-.31-12.77-.2a204.8,204.8,0,0,0-25.45,2.18c-8.39,1.33-16.89,3.09-25.45,4A113.79,113.79,0,0,1,1028.22,42.28Z"/><path class="cls-16" d="M1035.81,938c17.61-2.12,70.36-10.15,87.74-12,87.19-9.4,173.48-23.66,254.25-59.59,18.62-8.32,38.28-22,48.72-39.8,27.41-46.91-19.11-95.1-67.91-84.16-81.5,18.28-148.18,52.22-226.9,80.14-13.14,4.65-36.78,14.64-50.1,19.57-11.43,4.23-49.81,15.69-61.33,19.82"/><path class="cls-25" d="M1068.53,1109.52c4.26,12.89,8.67,25.72,13.35,38.35,4.79,12.92,41.63,79.69,9.58,85.8-6.29,1.2-12.14-3.26-16.94-7.5-27.58-24.41-47.93-55.32-67-86.86"/><path class="cls-29" d="M1045.32,1196.88c6.07,15,14.59,29.57,21,43.13,2.87,6.11,5.74,12.23,9,18.14,5.19,9.38,11.35,18.18,17.5,27l13.4,19.14c2.44,3.48,5,7.09,8.79,9,4.5,2.33,9.87,1.88,14.92,1.38,10-1,20.25-.89,30.13-2.92,6.47-1.32,12.92-2.47,16-9a30.8,30.8,0,0,0,2.4-10.33,56.58,56.58,0,0,0,0-13.64c-2.17-14.84-13.25-23.71-24-32.86-11.35-9.69-23-19.11-32.93-30.34-10.65-12.08-19-25.94-27.48-39.54"/><path class="cls-17" d="M1063.25,1252.13q-2.07-3.06-4.17-6.12c-3.3-4.8-7.23-10.91-6.74-17a6.56,6.56,0,0,1,.73-2.73c1.18-2,4-2.67,6.23-2.06a14.51,14.51,0,0,1,5.84,3.82c-2-1.87,3.41-11.27,4.59-12.78a50.59,50.59,0,0,1,11.89-11c4.16-2.66,8.65-4.58,13.63-4.35,2.55.11,10.76,1,11.93,3.93-1-2.52.74-5.57,3.28-6.55a8.63,8.63,0,0,1,7.74,1.26,24.61,24.61,0,0,1,5.61,5.86c8.63,11.38,16.78,23.4,27.65,32.81A131.37,131.37,0,0,1,1176,1265a85.32,85.32,0,0,1,11.38,26.2,38.83,38.83,0,0,1,1.12,7.78c1.5,35.16-40.06,40.42-64.77,28-18.27-9.2-28.09-25.59-38.78-42.13C1077.78,1273.8,1070.62,1263,1063.25,1252.13Z"/><path class="cls-16" d="M1019.49,1167.47c-8.91-14.72-34.29-59.83-43.24-74.23-44.92-72.24-85.58-146.7-106.39-229.89-4.77-19.2-6.09-42.37,1.3-61,19.47-49,84.09-42.22,104.89,1.61,34.73,73.2,48.63,144.43,74.34,221.27,4.29,12.82,10.78,36.85,15,50,3.6,11.26,17.77,47.44,21.5,58.71"/></g></g></svg>