<svg xmlns="http://www.w3.org/2000/svg" xmlns:xlink="http://www.w3.org/1999/xlink" width="2686.03" height="1179.76" viewBox="0 0 2686.03 1179.76">
  <defs>
    <clipPath id="clip-path">
      <rect id="Rectangle_78" data-name="Rectangle 78" width="2686.03" height="1179.76" transform="translate(-752.77 49.21)" fill="none"/>
    </clipPath>
  </defs>
  <g id="Layer_2" data-name="Layer 2" transform="translate(752.77 -49.21)">
    <g id="Layer_1" data-name="Layer 1">
      <g id="Group_15" data-name="Group 15" clip-path="url(#clip-path)">
        <path id="Path_387" data-name="Path 387" d="M2854.8,933.85q5.53-101.19,10.95-202.39c6.62-122.93,13.25-245.91,14.84-369,.62-47.27.54-94.82-6.31-141.7-6.27-42.88-12.51-85.9-48.19-114.71C2755.47,49,2659.32,21,2570.63,9.39c-84.36-11-169.64-5.9-254.43-7.76-151.26-3.3-338-11.83-456.58,97.19-48.52,44.63-69,108.88-118.38,151.82-43.5,37.84-97.23,48-149.61,67.78-53.87,20.3-106.62,47.8-144.86,91.91-33.36,38.47-52.75,86.12-69.93,133.44-16.58,45.66-27.87,99.51-64.39,133.93-29.79,28.08-70.66,37.75-107.42,53.13-40.15,16.79-80.07,45.31-106.31,80.36-44.58,59.55-26.87,141.85-68.08,202.95-37.72,55.94-104.2,82.62-159.24,117.52-47.06,29.84-95.21,72-112,128.1-21,70.23,8.61,123.33,80.88,135.36,78.46,13.06,158.07,2.42,237,5.89,69.77,3.06,139.18,5,209.46,8.42,164.18,8.07,329,4.81,492.65,22.21q7.36.78,14.73,1.62c96.74,11,190.11,22.71,284.67,46,104.47,25.74,208.3,54,312.1,82.26,69.38,18.91,140,38.57,211.81,36s146.63-31.3,186.84-90.91c33.85-50.18,38.71-113.81,42.39-174.23Q2844.12,1133.15,2854.8,933.85Z" transform="translate(-752.77)" fill="#ebf6f1"/>
        <path id="Path_388" data-name="Path 388" d="M1094.68,303.13c-.7-4.23,4.91-12.77,11-12.64,2.43.06,4.81.69,7.24.57,6.47-.32,9.83-5.35,12.32-9.53s7.46-8.92,13.76-7.86c9.08,1.52,13.66,13.5,24,4.51,6.75-5.89,7.26-14.12,14.91-19.83,5.25-3.92,13.79-6.24,20.83-4.08,9.18,2.83,12.6,11.94,22.38,13.52,10.84,1.76,18.63-6.49,22.09-12.43,4.19-7.21,5.75-15,9.35-22.35,3.32-6.8,10-15.9,22-15.7,10.14.16,14.61,6.58,19.59,11.68,6.47,6.62,19.92,30.41,35,27.55,5.88-1.12,8.82-5.79,14.12-7.89,8.54-3.36,19.41,1.26,24.55,7.08s7.18,12.83,13,18.33a13.351,13.351,0,0,0,5.68,3.41c8.12,2.22,15.67-4.61,24.36-5.11a20.23,20.23,0,0,1,15,5.9c3.44,3.43,5.32,7.49,8,11.26a8.35,8.35,0,0,0,2.9,2.82c3.81,2.05,9.17.32,13.84-.48,11.53-2,24.63,3.31,27.89,11.27Z" transform="translate(-752.77)" fill="#ebf6f1"/>
        <path id="Path_389" data-name="Path 389" d="M2147,443.83c-.56-3.36,3.89-10.14,8.74-10,1.93,0,3.82.54,5.75.45,5.13-.25,7.8-4.25,9.78-7.56s5.92-7.09,10.92-6.25c7.21,1.21,10.84,10.72,19,3.58,5.36-4.67,5.76-11.2,11.84-15.74,4.16-3.11,10.94-4.95,16.53-3.23,7.29,2.24,10,9.47,17.77,10.73,8.6,1.39,14.78-5.15,17.52-9.87,3.34-5.72,4.57-11.91,7.43-17.74,2.64-5.39,8-12.62,17.46-12.46,8.05.13,11.6,5.23,15.55,9.27,5.13,5.26,15.81,24.14,27.78,21.87,4.67-.89,7-4.6,11.21-6.26,6.77-2.67,15.4,1,19.48,5.62s5.7,10.18,10.31,14.55a10.69,10.69,0,0,0,4.52,2.71c6.44,1.76,12.43-3.66,19.33-4.07a16.07,16.07,0,0,1,11.9,4.69c2.74,2.73,4.23,6,6.32,8.94a6.858,6.858,0,0,0,2.3,2.24c3,1.62,7.28.25,11-.38,9.15-1.58,19.55,2.62,22.13,8.94Z" transform="translate(-752.77)" fill="#fff"/>
        <path id="Path_390" data-name="Path 390" d="M1856.16,187.18c-36.61,41.41-91.81,60.87-145.58,73.64S1601,281.65,1551.79,306.89C1467.88,350,1414.15,440.1,1400.67,533.44c-5.35,37.11-5.93,77.41-28.4,107.43-22.76,30.41-62.53,42.4-100.13,47.81s-76.74,6.33-111.32,22.06c-71.09,32.36-102.21,118.13-104,196.22-1.16,51.8,3.63,112.73-36.46,145.55-31.81,26-77.71,21.48-118,29.65-45.47,9.23-85.61,38.2-111.6,76.26C761.38,1201.5,762.45,1238,764.12,1287" transform="translate(-752.77)" fill="none" stroke="#ebf6f1" stroke-miterlimit="10" stroke-width="3"/>
      </g>
    </g>
  </g>
</svg>
