<svg xmlns="http://www.w3.org/2000/svg" xmlns:xlink="http://www.w3.org/1999/xlink" viewBox="0 0 1737.77 1743.87"><defs><style>.cls-1{fill:#26a8d1;}.cls-2{fill:url(#radial-gradient);}.cls-3{fill:#00a3d5;}.cls-4{fill:#6dc9f0;}.cls-5{fill:#381f7a;}.cls-6{fill:#8b018d;}.cls-7{fill:#9b87ff;}.cls-8{fill:#e6af3a;}.cls-9{fill:#ffc73c;}.cls-10{fill:#303672;opacity:0.2;}.cls-11{fill:#e8eefe;}.cls-12{fill:#8070f2;}.cls-13{fill:#444;}.cls-14{fill:#b6e4f8;}.cls-15,.cls-31{fill:#fff;}.cls-16{fill:#dbcdfe;}.cls-17{fill:#e6e9e5;}.cls-18{fill:#ff4564;}.cls-19{fill:#45ffbd;}.cls-20{fill:#e4e700;}.cls-21{fill:#3a4552;}.cls-22{fill:#646169;}.cls-23{fill:#757881;}.cls-24{fill:#f7f8f9;}.cls-25{fill:#293030;}.cls-26,.cls-29,.cls-38{opacity:0.1;}.cls-27{fill:#f3cba1;}.cls-28{fill:#d0d2ff;}.cls-29,.cls-39{fill:#231f20;}.cls-30{clip-path:url(#clip-path);}.cls-31{opacity:0.3;}.cls-32{fill:#0b2d4e;}.cls-33{fill:#ffe9cc;}.cls-34{fill:#51666f;}.cls-35{fill:#d8584e;}.cls-36{fill:#dfd4ff;}.cls-37{fill:#dfdbda;}.cls-40{fill:#3dc8e8;}.cls-41{fill:#f8a17a;}.cls-42{fill:#e5785c;}.cls-43{fill:#d74034;}.cls-44{fill:#ef5132;}.cls-45{fill:none;stroke:#0b2d4e;stroke-miterlimit:10;stroke-width:4px;}.cls-46{fill:#73b8d4;}.cls-47{fill:#8ed2cc;}.cls-48{fill:#66bbc4;}.cls-49{fill:#3c433a;}.cls-50{fill:#061f33;}</style><radialGradient id="radial-gradient" cx="899.08" cy="1652.33" r="575.73" gradientUnits="userSpaceOnUse"><stop offset="0" stop-color="#fff" stop-opacity="0.1"/><stop offset="1" stop-opacity="0.05"/></radialGradient><clipPath id="clip-path"><circle class="cls-1" cx="1512.46" cy="436.66" r="142.57"/></clipPath></defs><title>Services2</title><g id="Layer_2" data-name="Layer 2"><g id="Layer_1-2" data-name="Layer 1"><ellipse class="cls-2" cx="899.08" cy="1652.33" rx="809.04" ry="91.53"/><path class="cls-3" d="M246.05,875h93.52a4,4,0,0,0,4-4.33l19.89-282.1a4,4,0,0,0-4-3.73H267.12Z"/><path class="cls-4" d="M246.28,875l-39.72-4s20.53-274,21.74-290.15c24.13-.26,39.71,4,39.71,4Z"/><path class="cls-5" d="M334.59,871.37H436.84a4.5,4.5,0,0,0,4.48-4.83L417.47,552.08a4.49,4.49,0,0,0-4.48-4.15H310.06Z"/><path class="cls-6" d="M290.32,875.86l44.27-4.49s-22.88-305.49-24.23-323.44c-26.9-.29-44.27,4.49-44.27,4.49Z"/><polygon class="cls-6" points="411.17 626.9 327.08 626.9 324.72 593.4 408.81 593.4 411.17 626.9"/><polygon class="cls-6" points="409.38 582.33 325.29 582.33 324.56 575.04 408.64 575.04 409.38 582.33"/><path class="cls-7" d="M403,582.33s-4.05-15.72-7.25-23.82c3.93-.49,17.93-2.09,22.6-2.58,2,6.88,3.31,26.4,3.31,26.4Z"/><path class="cls-8" d="M418.48,870.93h91.73a4,4,0,0,0,4-4.33L492.83,584.5a4,4,0,0,0-4-3.72H396.47Z"/><path class="cls-9" d="M378.76,875l39.72-4s-20.53-274-21.74-290.15c-24.13-.26-39.71,4-39.71,4Z"/><polygon class="cls-9" points="490.29 699.55 417.12 699.55 415.3 676.68 488.47 676.68 490.29 699.55"/><polygon class="cls-10" points="357.03 584.8 366.96 874.96 378.76 874.96 357.03 584.8"/><polygon class="cls-10" points="268.37 584.8 278.31 874.96 290.11 874.96 268.37 584.8"/><path class="cls-3" d="M309.17,547.93s-4.94-19.14-8.83-29c4.79-.6,21.84-2.55,27.52-3.15,2.39,8.38,4,32.16,4,32.16Z"/><polygon class="cls-3" points="237.29 600.52 219.28 850.36 237.29 852.15 254.18 601.99 237.29 600.52"/><path class="cls-11" d="M540.9,711.21h684.79a10.94,10.94,0,0,1,10.94,10.94V782.6a0,0,0,0,1,0,0H530a0,0,0,0,1,0,0V722.15A10.94,10.94,0,0,1,540.9,711.21Z" transform="translate(1766.59 1493.81) rotate(180)"/><rect class="cls-12" x="809.37" y="782.6" width="145.03" height="62.47" transform="translate(1763.77 1627.68) rotate(180)"/><path class="cls-13" d="M530,299.4h706.67a0,0,0,0,1,0,0V702.25a10.11,10.11,0,0,1-10.11,10.11H540.07A10.11,10.11,0,0,1,530,702.25V299.4A0,0,0,0,1,530,299.4Z" transform="translate(1766.59 1011.77) rotate(180)"/><rect class="cls-14" x="556.74" y="329.11" width="653.67" height="357.75" transform="translate(1767.14 1015.98) rotate(180)"/><rect class="cls-15" x="579.81" y="347.77" width="607.48" height="339.1" transform="translate(1767.09 1034.63) rotate(180)"/><path class="cls-7" d="M867.33,743.71a16,16,0,1,0,16-16A16,16,0,0,0,867.33,743.71Z"/><path class="cls-16" d="M747.33,866h271.75a20.91,20.91,0,0,0-20.91-20.91H768.24A20.91,20.91,0,0,0,747.33,866Z"/><rect class="cls-17" x="556.74" y="329.11" width="653.67" height="18.65" transform="translate(1767.14 676.88) rotate(180)"/><path class="cls-18" d="M1193.92,338a4.15,4.15,0,1,0,4.15-4.14A4.15,4.15,0,0,0,1193.92,338Z"/><circle class="cls-19" cx="1183.14" cy="338.02" r="4.15" transform="translate(-38.87 193.88) rotate(-9.22)"/><circle class="cls-20" cx="1168.21" cy="338.02" r="4.15"/><rect class="cls-21" x="591.06" y="347.45" width="583.16" height="339.41"/><rect class="cls-3" x="591.06" y="347.45" width="56.7" height="56.7"/><rect class="cls-22" x="591.06" y="404.15" width="56.7" height="282.72"/><rect class="cls-23" x="647.76" y="347.45" width="526.46" height="56.7"/><rect class="cls-22" x="1080.03" y="404.15" width="94.19" height="282.72"/><rect class="cls-24" x="663.18" y="417.15" width="401.73" height="253.52"/><rect class="cls-23" x="1092.03" y="417.15" width="70.2" height="46.44"/><rect class="cls-23" x="1092.03" y="473.31" width="70.2" height="46.44"/><rect class="cls-23" x="1092.03" y="529.48" width="70.2" height="46.44"/><rect class="cls-23" x="603.37" y="417.15" width="30.11" height="30.11"/><rect class="cls-23" x="603.37" y="460.25" width="30.11" height="30.11"/><rect class="cls-23" x="603.37" y="503.35" width="30.11" height="30.11"/><rect class="cls-23" x="603.37" y="546.46" width="30.11" height="30.11"/><rect class="cls-23" x="603.37" y="589.56" width="30.11" height="30.11"/><rect class="cls-22" x="663.18" y="360.75" width="30.11" height="30.11" transform="translate(302.43 1054.03) rotate(-90)"/><rect class="cls-22" x="706.28" y="360.75" width="30.11" height="30.11" transform="translate(345.53 1097.14) rotate(-90)"/><rect class="cls-22" x="749.38" y="360.75" width="30.11" height="30.11" transform="translate(388.63 1140.24) rotate(-90)"/><rect class="cls-22" x="792.49" y="360.75" width="30.11" height="30.11" transform="translate(431.74 1183.34) rotate(-90)"/><rect class="cls-22" x="835.59" y="360.75" width="30.11" height="30.11" transform="translate(474.84 1226.45) rotate(-90)"/><rect class="cls-25" x="591.06" y="670.67" width="583.16" height="16.2"/><rect class="cls-3" x="678.23" y="432.2" width="272.55" height="67.84"/><rect class="cls-26" x="678.23" y="510.3" width="129.31" height="62.1"/><rect class="cls-12" x="678.23" y="582.63" width="129.31" height="62.1"/><rect class="cls-26" x="821.47" y="510.3" width="129.31" height="134.43"/><rect class="cls-26" x="963.64" y="432.2" width="87.47" height="212.53"/><rect class="cls-9" x="963.64" y="510.3" width="87.47" height="62.1"/><rect class="cls-27" x="47.5" y="865.99" width="1690.27" height="60.02"/><rect class="cls-26" x="47.5" y="896" width="1690.27" height="30.01"/><polygon class="cls-27" points="205.04 1652.98 165.19 1652.47 250.41 965.07 289.21 973.99 205.04 1652.98"/><path class="cls-26" d="M267.78,1146.89,289.21,974l-38.8-8.92-22.5,181.47Q248,1147.08,267.78,1146.89Z"/><polygon class="cls-27" points="514.83 1652.98 554.74 1652.98 469.45 965.07 430.65 973.99 514.83 1652.98"/><path class="cls-26" d="M451.77,1146.89,430.34,974l38.8-8.92,22.5,181.47Q471.6,1147.08,451.77,1146.89Z"/><rect class="cls-27" x="210.75" y="926.01" width="298.06" height="48.64"/><rect class="cls-27" x="210.75" y="1291.6" width="298.06" height="48.64"/><rect class="cls-26" x="210.75" y="926.01" width="298.06" height="48.64"/><polygon class="cls-27" points="1271.61 1652.98 1231.7 1652.98 1316.98 965.07 1355.78 973.99 1271.61 1652.98"/><path class="cls-26" d="M1334.35,1146.89,1355.78,974l-38.8-8.92-22.49,181.47Q1314.52,1147.08,1334.35,1146.89Z"/><polygon class="cls-27" points="1581.4 1652.98 1621.31 1652.98 1536.03 965.07 1497.22 973.99 1581.4 1652.98"/><path class="cls-26" d="M1518.35,1146.89,1496.91,974l38.8-8.92,22.5,181.47Q1538.19,1147.08,1518.35,1146.89Z"/><rect class="cls-27" x="1277.32" y="926.01" width="298.06" height="48.64"/><rect class="cls-27" x="1277.32" y="1291.6" width="298.06" height="48.64"/><rect class="cls-26" x="1277.32" y="926.01" width="298.06" height="48.64"/><path class="cls-16" d="M1159.32,819.53h34.74A46.47,46.47,0,0,1,1240.52,866v0a0,0,0,0,1,0,0H1112.85a0,0,0,0,1,0,0v0A46.47,46.47,0,0,1,1159.32,819.53Z"/><path class="cls-7" d="M1176.69,819.53h17.37A46.47,46.47,0,0,1,1240.52,866v0a0,0,0,0,1,0,0h-63.83a0,0,0,0,1,0,0V819.53A0,0,0,0,1,1176.69,819.53Z"/><rect class="cls-7" x="1497.34" y="594.72" width="30.26" height="30.26" transform="translate(3024.93 1219.69) rotate(180)"/><path class="cls-28" d="M1440.39,684h144.15a59,59,0,0,0-59-59h-26.21a59,59,0,0,0-59,59Z"/><path class="cls-29" d="M1512.52,684h-72.08a59,59,0,0,1,59-59h-2V594.72h15.13"/><path class="cls-12" d="M1435.21,281.89l14.29,31.29L1484,388.81q20.81,45.54,41.6,91.08,18,39.39,36,78.79l11.94,26.13c1.86,4.08,3.47,8.47,5.66,12.4.09.17.16.36.24.53,3.21,7,13.55.93,10.36-6q-7.14-15.65-14.29-31.3-17.26-37.82-34.54-75.62-20.8-45.54-41.6-91.09-18-39.39-36-78.79-6-13.06-11.93-26.13c-1.87-4.08-3.48-8.47-5.67-12.39-.09-.17-.16-.36-.24-.54-3.21-7-13.55-.92-10.36,6.06Z"/><path class="cls-7" d="M1452.77,282.48c-63.76,29.42-109.84,95-106.35,166.56a156.23,156.23,0,0,0,38,94.43c22.52,26,53.62,44.23,86.93,52.49,40.19,10,82.46,5.37,120.08-11.63,7-3.18.93-13.52-6.06-10.36-61.08,27.6-136.76,17.2-184.81-30.77-22.65-22.61-37.72-52.66-41.39-84.54-3.59-31.18,3.11-62.91,18-90.46,18.1-33.48,47.2-59.47,81.63-75.36,7-3.23.92-13.57-6-10.36Z"/><circle class="cls-1" cx="1512.46" cy="436.66" r="142.57"/><g class="cls-30"><path class="cls-9" d="M1551.28,304.72a4.8,4.8,0,0,1,0,1.31c-.27,1.81-2.33,2.68-3.53,4.06a6.43,6.43,0,0,0-1.31,5.08,15,15,0,0,0,1.85,5,3.83,3.83,0,0,1,.68,2.28c-.19,1.3-1.63,2-2.91,2.29-4,1-14.89,4.22-11,10.77,1.79,3,6.1,2.83,9.59,3.24a19.09,19.09,0,0,1,16.27,16.69,4.82,4.82,0,0,1-.51,3.11c-.89,1.35-2.76,1.63-4.39,1.55-7.62-.38-14-5.69-19.69-10.74-3.16,1.86-3.24,6.5-1.93,9.93s3.59,6.58,3.9,10.23a14,14,0,0,1-12.17,0c-2-1-4.38-2.57-6.41-1.51-1.74.9-2.09,3.19-3.1,4.87-3.07,5.1-10.67,3.53-16.5,4.73-4.4.9-8.14,3.68-11.73,6.38l-23.55,17.72a7.41,7.41,0,0,0-2.07,2c-1.29,2.16-.07,5.07,1.87,6.68s4.42,2.37,6.66,3.53c8.89,4.65,10.91,13.68,15.58,21.64A119.63,119.63,0,0,0,1504,457.56a196.47,196.47,0,0,1,19.88,24.72,39.47,39.47,0,0,1,5.18,9.15c2.57,7.34.6,15.38.17,23.15a6.39,6.39,0,0,0,.57,3.68c.65,1.08,2.2,1.72,3.22,1a3.57,3.57,0,0,0,1-1.61c1.75-4.06,4.32-7.14,7.18-10.41,2.51-2.87,2.67-4.47,3.14-8.22.19-1.52,1-2.23,1-3.95-.06-1.56-1.36-2.8-.85-4.48.43-1.42,2-2.2,2.69-3.48,1.38-2.43-.53-5.52.08-8.25.66-3,2-4.63,2-7.81a26.88,26.88,0,0,0-1-9c-.68-2-2.27-3.46-2.65-5.59-.27-1.56.07-3.22-.44-4.72a14.91,14.91,0,0,0-2.12-3.37c-2.83-4.25-2.25-9.82-1.55-14.88.28-2.1.77-4.49,2.62-5.52a6.85,6.85,0,0,0,1.54-.88,4,4,0,0,0,.78-2,11.8,11.8,0,0,1,7.66-8.51c8.06-2.67,1.44-12.72-2.76-16.74-2.63-2.53-5.67-4.67-7.79-7.64s-3.12-7.13-1.22-10.23c2.72-4.41,9.57-4,13.81-1s6.92,7.66,10.63,11.27,9.54,6.14,14,3.49c1.28-.76,2.44-1.93,3.93-2,2-.09,3.43,1.79,5.09,2.89,5.1,3.39,12.19-.71,18,1.19,2.61.85,4.69,2.83,7.15,4.06s5.88,1.45,7.56-.73c.65-.85,1-2,1.92-2.54s2.09-.21,3.15-.29c2.77-.21,4.63-3.16,4.76-5.92s-1-5.43-1.74-8.08a38.91,38.91,0,0,1,1.66-26.43c.9-2.06,2-4.1,2.15-6.34.25-3.61-2-6.87-4.24-9.7a130,130,0,0,0-62.41-42.62c-5.24-1.64-17.5-5-16.52,5C1551.22,304.34,1551.25,304.53,1551.28,304.72Z"/><path class="cls-9" d="M1431.27,327l-5.7,8.78a8.67,8.67,0,0,0-1.77,4.22c-.13,3.37,3.47,5.64,4.58,8.83,1.83,5.29-4,10.34-9.51,11.23-3.83.61-8.82.84-10,4.54-.4,1.29-.17,2.7-.53,4-.5,1.79-2,3.08-3.19,4.51a14.58,14.58,0,0,0-.74,17c1.6,2.32,3.85,4.13,5.41,6.47s2.3,5.63.61,7.88c-3.06,4.08-11.69,2.19-12.68,7.19-.42,2.11.83,4.89-.94,6.1a14.5,14.5,0,0,1-2.3.79c-1.77.81-2.09,3.22-1.71,5.14s1.19,3.85.75,5.75c-2.41,1-5.62-1.19-7.67.46a5.16,5.16,0,0,0-1.29,2,113.49,113.49,0,0,1-15.21,24.83,2,2,0,0,1-1.34.92c-.72,0-1.18-.72-1.48-1.37-3.55-7.62-3.77-16.31-3.93-24.72s-.3-16.66,1.49-24.75c1.6-7.18,4.68-13.94,7.74-20.64,8.93-19.56,17.9-39.19,29.28-57.44,3.62-5.8,7.58-11.57,13-15.7,4-3.06,16.78-9.08,21.12-3.45C1438.25,313.34,1433.52,323.49,1431.27,327Z"/></g><path class="cls-3" d="M1291.5,796.78h0a2.09,2.09,0,0,1-2.48-1.63L1285.44,778a2.1,2.1,0,0,1,1.63-2.48h0a2.1,2.1,0,0,1,2.48,1.62l3.57,17.14A2.1,2.1,0,0,1,1291.5,796.78Z"/><path class="cls-3" d="M1265.27,671.05h0a5.81,5.81,0,0,1-6.85-4.49l-4.28-20.51a5.82,5.82,0,0,1,4.49-6.86h0a5.81,5.81,0,0,1,6.85,4.49l4.28,20.51A5.82,5.82,0,0,1,1265.27,671.05Z"/><path class="cls-3" d="M1289.43,786.88h0a5.81,5.81,0,0,1-6.85-4.49l-4.28-20.51a5.81,5.81,0,0,1,4.49-6.85h0a5.81,5.81,0,0,1,6.85,4.49l4.28,20.51A5.81,5.81,0,0,1,1289.43,786.88Z"/><path class="cls-4" d="M1268.35,653.78l-12.79,2.67a5.93,5.93,0,0,0-4.59,7l10.87,52.13,13.56,51.87a5.9,5.9,0,0,0,6.93,4.29l7.56-1.57a5.92,5.92,0,0,0,4.64-6.71l-8.31-53-10.87-52.12A5.93,5.93,0,0,0,1268.35,653.78Z"/><path class="cls-3" d="M1284.75,714.33l-20,4.17a3.44,3.44,0,0,1-4.08-2.67h0a3.44,3.44,0,0,1,2.67-4.08l20-4.18a3.46,3.46,0,0,1,4.09,2.67h0A3.46,3.46,0,0,1,1284.75,714.33Z"/><path class="cls-3" d="M1293.72,705.4h0a2.72,2.72,0,0,1-3.21-2.1l-10.27-49.23a2.71,2.71,0,0,1,2.1-3.2h0a2.71,2.71,0,0,1,3.21,2.1l10.27,49.23A2.71,2.71,0,0,1,1293.72,705.4Z"/><rect class="cls-4" x="1276.8" y="657.63" width="5.67" height="14.79" transform="translate(-108.84 275.34) rotate(-11.78)"/><rect class="cls-9" x="1292.79" y="621.82" width="26.29" height="124.93" transform="translate(36.79 -66.03) rotate(2.94)"/><rect class="cls-31" x="1298.78" y="621.82" width="14.31" height="124.93" transform="translate(36.77 -66.01) rotate(2.94)"/><polygon class="cls-32" points="1300.38 788.5 1315.86 747.33 1289.19 745.96 1300.38 788.5"/><polygon class="cls-33" points="1308.45 767.02 1315.86 747.33 1289.19 745.96 1294.54 766.31 1308.45 767.02"/><rect class="cls-32" x="1296.32" y="608.89" width="26.29" height="13.01" transform="translate(33.26 -66.3) rotate(2.94)"/><path class="cls-7" d="M1300.31,596.42h19.59a3.35,3.35,0,0,1,3.35,3.35v9.67a0,0,0,0,1,0,0H1297a0,0,0,0,1,0,0v-9.67A3.35,3.35,0,0,1,1300.31,596.42Z" transform="translate(32.61 -66.33) rotate(2.94)"/><rect class="cls-9" x="1320.74" y="654.35" width="26.29" height="124.93" transform="translate(2244.59 1926.65) rotate(-155.22)"/><rect class="cls-31" x="1326.73" y="654.35" width="14.31" height="124.93" transform="translate(2244.58 1926.66) rotate(-155.22)"/><polygon class="cls-32" points="1377.82 622.14 1348.13 654.59 1372.38 665.78 1377.82 622.14"/><polygon class="cls-33" points="1362.33 639.07 1348.13 654.59 1372.38 665.78 1374.98 644.91 1362.33 639.07"/><rect class="cls-34" x="1291.84" y="772.93" width="26.29" height="13.01" transform="translate(2163.2 2034.01) rotate(-155.22)"/><path class="cls-35" d="M1288.61,784.27h22.29a2,2,0,0,1,2,2v11a0,0,0,0,1,0,0h-26.29a0,0,0,0,1,0,0v-11A2,2,0,0,1,1288.61,784.27Z" transform="translate(2148.47 2053.45) rotate(-155.22)"/><rect class="cls-5" x="1262.59" y="737.89" width="79.53" height="127.58" transform="translate(2604.7 1603.37) rotate(180)"/><rect class="cls-26" x="1262.59" y="737.89" width="39.76" height="127.58" transform="translate(2564.94 1603.37) rotate(180)"/><rect class="cls-7" x="62.55" y="369.37" width="12.56" height="479.73" transform="translate(-139.31 32.54) rotate(-13.4)"/><rect class="cls-7" x="88.75" y="364.07" width="12.56" height="492.06" transform="translate(-138.8 38.63) rotate(-13.4)"/><rect class="cls-7" x="159.22" y="60.23" width="12.56" height="335.9" transform="translate(223.64 -47.64) rotate(47.86)"/><rect class="cls-7" x="166.49" y="87.76" width="12.56" height="335.9" transform="translate(246.44 -43.97) rotate(47.86)"/><rect class="cls-12" x="100.75" y="846.67" width="252.76" height="19.58"/><path class="cls-7" d="M110.06,807.5H344.19a9.32,9.32,0,0,1,9.32,9.32v29.85a0,0,0,0,1,0,0H100.75a0,0,0,0,1,0,0V816.82A9.32,9.32,0,0,1,110.06,807.5Z"/><rect class="cls-7" x="327.34" y="78.45" width="12.56" height="86.42" transform="translate(272.17 -228.1) rotate(60)"/><path class="cls-12" d="M71.17,372.5,53.43,397.14a8.9,8.9,0,0,1-11.29,2.73l-37.28-19a8.91,8.91,0,0,1-3.13-13.21l28.35-38.68a8.92,8.92,0,0,1,14.13-.33l26.67,33.08A8.91,8.91,0,0,1,71.17,372.5Z"/><path class="cls-15" d="M12.8,372a4.09,4.09,0,1,1-4.08-4.09A4.09,4.09,0,0,1,12.8,372Z"/><circle class="cls-15" cx="46.8" cy="391.5" r="4.09"/><path class="cls-15" d="M68,367a4.09,4.09,0,1,1-4.09-4.09A4.09,4.09,0,0,1,68,367Z"/><path class="cls-12" d="M269.51,111.91l14,56.51a5.25,5.25,0,0,0,8.74,2.51l41.92-40.4a5.24,5.24,0,0,0-2.19-8.81l-55.94-16.11A5.25,5.25,0,0,0,269.51,111.91Z"/><path class="cls-15" d="M294.65,161.17a4.09,4.09,0,1,1-1.19-5.66A4.1,4.1,0,0,1,294.65,161.17Z"/><path class="cls-15" d="M283.2,117.53a4.09,4.09,0,1,1-1.19-5.65A4.09,4.09,0,0,1,283.2,117.53Z"/><path class="cls-15" d="M327.32,131a4.09,4.09,0,1,1-1.19-5.66A4.1,4.1,0,0,1,327.32,131Z"/><path class="cls-15" d="M41.6,333.35a4.09,4.09,0,1,1-4.09-4.09A4.09,4.09,0,0,1,41.6,333.35Z"/><path class="cls-7" d="M369.45,5.47h63.43a9.9,9.9,0,0,1,9.9,9.9V130.32a0,0,0,0,1,0,0H359.55a0,0,0,0,1,0,0V15.37a9.9,9.9,0,0,1,9.9-9.9Z" transform="translate(-5.33 85.41) rotate(-12.07)"/><rect class="cls-12" x="364.54" y="80.96" width="83.57" height="22.18" transform="translate(-10.26 87.02) rotate(-12.07)"/><polygon class="cls-36" points="550.45 173.76 316.69 223.76 367.93 111.48 449.32 94.07 550.45 173.76"/><path class="cls-26" d="M409.83,102.52l39.49-8.45,101.13,79.69s-84.52,18.63-118.71,25.71"/><path class="cls-26" d="M399.15,1.48h31a9.69,9.69,0,0,1,9.69,9.69V99.34a0,0,0,0,1,0,0H399.15a0,0,0,0,1,0,0V1.48A0,0,0,0,1,399.15,1.48Z" transform="translate(-1.26 88.86) rotate(-12.07)"/><path class="cls-7" d="M1640.13,868.81H1402.89c-19.73,0-35.72-12.45-35.72-27.81v-7.13c0-15.36,16-27.81,35.72-27.81h237.24v8.56H1419.38c-7.59,0-13.74,4.79-13.74,10.69v24.24c0,5.91,6.15,10.7,13.74,10.7h220.75Z"/><path class="cls-12" d="M1667.61,868.81H1430.37c-19.73,0-35.72-12.45-35.72-27.81v-7.13c0-15.36,16-27.81,35.72-27.81h237.24v8.56H1430.37c-13.66,0-24.73,8.62-24.73,19.25V841c0,10.63,11.07,19.25,24.73,19.25h237.24Z"/><path class="cls-15" d="M1661.2,860.25H1427.77A22.82,22.82,0,0,1,1405,837.43h0a22.82,22.82,0,0,1,22.82-22.81H1661.2Z"/><path class="cls-37" d="M1417.78,834.28q26.61-.75,53.24-1c17.75-.21,35.49-.27,53.24-.29s35.5.08,53.24.28,35.5.51,53.25,1q-26.62.76-53.25,1c-17.74.2-35.49.26-53.24.28s-35.49-.08-53.24-.29S1435.52,834.79,1417.78,834.28Z"/><path class="cls-37" d="M1446.4,848.42q26.63-.75,53.24-1c17.75-.21,35.5-.26,53.25-.29s35.49.08,53.24.29,35.49.51,53.24,1q-26.62.75-53.24,1c-17.75.21-35.5.26-53.24.29s-35.5-.09-53.25-.29S1464.15,848.92,1446.4,848.42Z"/><g class="cls-38"><path class="cls-39" d="M1407.14,827.3c6-10.79,14.46-12.68,20.63-12.68h233.89V829"/></g><path class="cls-5" d="M1655.82,806.06H1407.59a24.76,24.76,0,0,1-24.74-24.73V750.18a24.77,24.77,0,0,1,24.74-24.73h248.23v11H1407.59a13.76,13.76,0,0,0-13.74,13.74v31.15a13.75,13.75,0,0,0,13.74,13.74h248.23Z"/><path class="cls-15" d="M1649.41,795.07H1406.9a13.74,13.74,0,0,1-13.74-13.74V750.19a13.74,13.74,0,0,1,13.74-13.74h242.51Z"/><g class="cls-38"><path class="cls-39" d="M1393.16,750.19a13.74,13.74,0,0,1,13.74-13.74h242.51v14.34"/></g><path class="cls-37" d="M1427.05,761.94q26.63-.87,53.24-1.16c17.75-.24,35.5-.3,53.25-.33s35.49.09,53.24.32,35.49.59,53.24,1.17q-26.62.88-53.24,1.17c-17.75.24-35.5.31-53.24.33s-35.5-.09-53.25-.33S1444.8,762.52,1427.05,761.94Z"/><path class="cls-37" d="M1407.82,774.56q26.61-.87,53.24-1.16c17.75-.24,35.49-.31,53.24-.34s35.49.09,53.24.33,35.5.59,53.24,1.17q-26.61.87-53.24,1.17c-17.75.24-35.49.3-53.24.33s-35.49-.09-53.24-.33S1425.56,775.14,1407.82,774.56Z"/><rect class="cls-40" x="1374.5" y="684.35" width="300.45" height="42.36"/><rect class="cls-9" x="1401.63" y="690.87" width="11.34" height="29.31"/><rect class="cls-9" x="1457.97" y="690.87" width="11.34" height="29.31"/><rect class="cls-9" x="1419.84" y="684.35" width="31.95" height="42.36"/><path class="cls-41" d="M846.62,606.29c39.79,26.27,117.24,5.9,95.29-46.19-2.66-6.32-5.9-12.44-7.67-19-3-10.94-2.66-22.22-2.35-33.35.35-13,.45-26,1.17-39-14.55-2.72-26.35-4.08-41.8-3.52-12.78.47-25.55-.71-38.32-.05a5,5,0,0,0-2.87.75,3.34,3.34,0,0,0-1,2.44c-1.72,17.55,0,35.32-1.38,52.9-.75,9.83-2.09,21.08-6.59,30.2-6.91,14-17.18,27.07-7.28,42.31A43.57,43.57,0,0,0,846.62,606.29Z"/><path class="cls-42" d="M1112.43,798.82a68.31,68.31,0,1,1,136.61,0"/><path class="cls-42" d="M1242,771.22h0a43.22,43.22,0,0,0-59.39-13.66l-49.56,32.94a43.2,43.2,0,0,0-13.66,59.38h0a43.2,43.2,0,0,0,59.38,13.66l49.57-32.94A43.22,43.22,0,0,0,1242,771.22Z"/><path class="cls-42" d="M582.78,825.92h0a43.2,43.2,0,0,1,43.44-42.73l255.87,2.11a43.22,43.22,0,0,1,42.73,43.45h0a43.22,43.22,0,0,1-43.44,42.73l-255.87-2.12A43.2,43.2,0,0,1,582.78,825.92Z"/><path class="cls-1" d="M1038.38,972H734.78V706.34A136.28,136.28,0,0,1,871.05,570.06h31.06a136.28,136.28,0,0,1,136.27,136.28Z"/><path class="cls-41" d="M596.18,857.79h0a43.21,43.21,0,0,1-3.28-60.85L763.82,606.52a43.21,43.21,0,0,1,60.85-3.28h0A43.2,43.2,0,0,1,828,664.08L657,854.5A43.21,43.21,0,0,1,596.18,857.79Z"/><path class="cls-43" d="M664.31,717.49l224.45,165V557.17h0a182.78,182.78,0,0,0-136.7,61.45Z"/><path class="cls-41" d="M1179.5,857.79h0a43.22,43.22,0,0,0,3.28-60.85L1011.85,606.52A43.2,43.2,0,0,0,951,603.24h0a43.2,43.2,0,0,0-3.29,60.84L1118.65,854.5A43.21,43.21,0,0,0,1179.5,857.79Z"/><path class="cls-43" d="M1111.37,717.49l-224.46,165V557.17h0a182.8,182.8,0,0,1,136.7,61.45Z"/><rect class="cls-43" x="1018.87" y="1536.14" width="98.16" height="109.95"/><path class="cls-43" d="M1117,1640.06h-98.16v-4.65a49.06,49.06,0,0,1,49.06-49.06h0a49.07,49.07,0,0,1,49.06,49.06Z"/><path class="cls-32" d="M1130.48,1560.8H1004.79v-448a63,63,0,0,1,62.85-62.84h0a63,63,0,0,1,62.84,62.84Z"/><rect class="cls-32" x="570.3" y="1052.48" width="558.59" height="125.69" rx="62.84"/><path class="cls-43" d="M749.31,1377.14l10.64,44,8.48,35,6.48,26.8-197.2,47.71v0a63.61,63.61,0,0,1,46.87-76.78l15.82-3.83a33.92,33.92,0,0,0,25-41l-2.66-11Z"/><path class="cls-43" d="M776.32,1488.57l-64.42,15.59c0-.08,0-.16,0-.23A66.59,66.59,0,0,1,761,1424.1Z"/><path class="cls-44" d="M579.6,1538.48h0a19.59,19.59,0,0,0,23.58,14.39l159.22-38.52a19.6,19.6,0,0,0,14.4-23.59h0a19.6,19.6,0,0,0-23.59-14.39L594,1514.89A19.6,19.6,0,0,0,579.6,1538.48Z"/><path class="cls-32" d="M648.24,1428.6,770,1397.35l-76.42-297.74a63,63,0,0,0-76.5-45.24h0a63,63,0,0,0-45.24,76.49Z"/><rect class="cls-44" x="1008.39" y="1621.42" width="120.16" height="35.61" rx="17.8"/><path class="cls-41" d="M979.21,413.41c23-12.88,30.46,19.09,26.63,35.08A50.81,50.81,0,0,1,997.69,467c-5.43,7.35-21.06,19.62-30.21,11.72-4.15-3.58-4.64-9.73-4.82-15.21C962.18,448.81,963.6,422.15,979.21,413.41Z"/><path class="cls-41" d="M800.73,413.41c-23-12.88-30.46,19.09-26.64,35.08A51,51,0,0,0,782.24,467c5.44,7.35,21.06,19.62,30.22,11.72,4.15-3.58,4.63-9.73,4.82-15.21C817.76,448.81,816.33,422.15,800.73,413.41Z"/><path class="cls-32" d="M966.83,492.53a136.36,136.36,0,0,1-19.51,21.23c-20,17.18-53.62,19.27-78.57,14.49a95.61,95.61,0,0,1-41.29-19c-13-10.36-20-24.06-30-37-7.6-9.85-11.55-25.24-15.65-36.88-8.78-25-15.67-52-13.32-78.68,1.91-21.63-10.18-41-4.72-62.81A62.48,62.48,0,0,1,787.28,259c6.33-4.63,13.67-8.09,21.47-8.93,17.42-1.9,32.24,9.95,49.47,10.76s34.09-5.51,50.79-9.31c14.59-3.32,30.57-5.15,45-.19,16.11,5.51,23.87,17.84,32.78,32.1,7.62,12.2,19.08,21.35,28.24,32.17,12.28,14.51,16.15,33,12.25,51.85-6.12,29.66-18.59,57.63-33.92,83.61C985.47,464.48,976.86,479.31,966.83,492.53Z"/><path class="cls-45" d="M774,361.33c-.2-9.39-6.44-17.36-11.19-25.46-7.46-12.67-10.15-27.55-8.54-42.19a55.88,55.88,0,0,1,26.83-41.45,46.75,46.75,0,0,1,36.28-5c11.34,3.24,20.56,11.92,31.57,14.93,24.67,6.75,50-13.31,73.42-18.16,23.24-4.8,48.08,3,59.71,26.38,4.58,9.21,6.6,19.89,12.59,28.16,10,13.81,29.25,18.37,37.21,33.59,13,24.84-12.84,61.17-26,80.49"/><path class="cls-46" d="M832.29,288c19.15,1.24,37.8-2.9,56.51-6.72a191.73,191.73,0,0,1,28.6-2.91q7.2-.21,14.4.08a90.34,90.34,0,0,1,14.46,1.43A40.51,40.51,0,0,1,971,295.16c3,4.24,3.84,9.47,4.16,14.25s.21,9.55,1.19,14c.82,4.53,3.21,8.49,6.06,12.26s6,7.45,8.21,11.86a36.59,36.59,0,0,1,3.28,14.07,99.08,99.08,0,0,1-.52,14.32,123,123,0,0,0-.32-14.25,35.25,35.25,0,0,0-3.83-13.43c-2.21-4.09-5.41-7.59-8.41-11.34S975,328.89,973.93,324c-1.22-4.82-1.2-9.72-1.54-14.38s-1.2-9.21-3.82-12.82a26.08,26.08,0,0,0-4.59-5,38.64,38.64,0,0,0-5.55-4.05,41,41,0,0,0-12.82-4.84,87.58,87.58,0,0,0-14-1.51q-7.08-.36-14.19-.22a225.43,225.43,0,0,0-28.28,2.43c-9.33,1.47-18.77,3.43-28.28,4.39A126.22,126.22,0,0,1,832.29,288Z"/><rect class="cls-47" x="702.11" y="1175.51" width="367.94" height="86.38" rx="42.77"/><rect class="cls-32" x="860.42" y="1113.83" width="46.92" height="221.78"/><path class="cls-48" d="M1030.06,1138.74H742.11A40.07,40.07,0,0,1,702,1098.66V827.89a184,184,0,0,1,184.05-184h0a184,184,0,0,1,184.05,184v270.77A40.08,40.08,0,0,1,1030.06,1138.74Z"/><polygon class="cls-49" points="932.17 1299.3 833.41 1299.3 767.67 1261.89 999.99 1261.89 932.17 1299.3"/><rect class="cls-49" x="859.13" y="1332.63" width="47.32" height="120.44"/><polygon class="cls-32" points="932.17 1299.3 833.41 1299.3 767.67 1261.89 999.99 1261.89 932.17 1299.3"/><rect class="cls-32" x="859.13" y="1299.3" width="47.32" height="120.44"/><rect class="cls-23" x="847.19" y="1364.39" width="71.21" height="120.44"/><path class="cls-23" d="M988.34,1572.75h-20.2c0-42.91-28.15-77.83-62.76-77.83H752.85c-34.61,0-62.77,34.92-62.77,77.83h-20.2c0-54,37.22-98,83-98H905.38C951.12,1474.73,988.34,1518.7,988.34,1572.75Z"/><path class="cls-23" d="M1102.91,1572.75h-20.2c0-42.91-28.15-77.83-62.76-77.83H867.42c-34.61,0-62.77,34.92-62.77,77.83h-20.2c0-54,37.22-98,83-98H1020C1065.69,1474.73,1102.91,1518.7,1102.91,1572.75Z"/><path class="cls-32" d="M668.15,1572.81h41.41a40.61,40.61,0,0,1,40.61,40.61v.8a40.61,40.61,0,0,1-40.61,40.61h-.8a40.61,40.61,0,0,1-40.61-40.61v-41.41A0,0,0,0,1,668.15,1572.81Z"/><path class="cls-32" d="M783.05,1572.81h41.41a40.61,40.61,0,0,1,40.61,40.61v.8a40.61,40.61,0,0,1-40.61,40.61h-.8a40.61,40.61,0,0,1-40.61-40.61v-41.41A0,0,0,0,1,783.05,1572.81Z"/><path class="cls-32" d="M966.79,1572.81h41.41a40.61,40.61,0,0,1,40.61,40.61v.8a40.61,40.61,0,0,1-40.61,40.61h-.8a40.61,40.61,0,0,1-40.61-40.61v-41.41A0,0,0,0,1,966.79,1572.81Z"/><path class="cls-32" d="M1080.84,1572.81h41.41a40.61,40.61,0,0,1,40.61,40.61v.8a40.61,40.61,0,0,1-40.61,40.61h-.8a40.61,40.61,0,0,1-40.61-40.61v-41.41A0,0,0,0,1,1080.84,1572.81Z"/></g><g id="Layer_3" data-name="Layer 3"><path class="cls-32" d="M1359.65,1611.56c-30.18-1.43-60.26,3.42-90.09,8.26-9.42,1.52-19.39,6.75-12.29,18,3.89,6.18,12,8,19.22,8.82,31.16,3.57,63.17-.38,94.49-.33"/><path class="cls-50" d="M1581.66,1569.72c4.58,28-8.55,68.43-39.1,76.6-12.32,3.3-27.15,2.13-39.87,2q-23.22-.12-46.43-.33l-91.21-.65c-20-.15-41.35-.66-58.07-11.7-19.88-13.12-29.78-37.38-16.56-58.26,11.35-17.94,32.58-28.93,52.83-33.29,33.93-7.31,69.17,2.38,102.89-3.7a99,99,0,0,0,16.22-4.32c30.45-11,60.7-26.25,91.78-8.23C1569,1536.54,1578.87,1552.7,1581.66,1569.72Z"/><path class="cls-32" d="M1329.82,1509.46c-5.08-5.37-8.2-6.42-11.27,1.21-3.54,8.81-5.93,18.41-5.82,28a83.37,83.37,0,0,0-34.91,16.63c-7.82-5.56-17.11-9.07-26.42-11.16-8-1.81-8.93,1.35-7.39,8.58,1.9,8.92,4.94,17.53,7.88,26.15,1.84,5.4,3.51,10.85,5.39,16.22a38.61,38.61,0,0,0,7.17,14.9c8.88,11,26.55,17.45,40.24,19.26,15.5,2,30.18-1.91,40.62-13.69,9.37-10.57,15.76-25,18.19-38.83a46.9,46.9,0,0,0-2-23.92c-3.11-8.55-9.25-14.77-14.6-21.92C1341.41,1523.55,1336.09,1516.1,1329.82,1509.46Z"/><path class="cls-32" d="M1558.8,1547.48c29.18,27.78,26.12,59.8,10,88.12-17.88,31.41-47.32,52.68-80.16,66.52-38.78,16.34-83.16,24.7-124.7,14.9-8.34-2-17.47-6.07-19.93-14.29-7.28-24.31,30.65-23.88,44.17-25,27.8-2.37,57.25-2.66,84.29-11.7,29.66-9.92,50.79-31.08,65.63-58.16"/><path class="cls-32" d="M1580,1592.25a59.61,59.61,0,0,0-12.68-36.3c-20.65-26-60.84-26.77-88.51-12.7-31.74,16.15-36.77,58.9-24.34,89,.57,1.38-11.12,1-12.1,1-8.39.6-25.76-1-29.11,9.28-2.24,6.89,2.36,16.2,9.28,18.44a29,29,0,0,0,9,.93q32.63,0,65.23.08c17,0,29.87-3.12,40.07-17.64,5.31-7.56,9.33-16,15-23.3"/><path class="cls-50" d="M1326.65,1601.83c1.23,3.17-.77,6.91-4.46,8.33s-7.68,0-8.91-3.16.77-6.91,4.46-8.34S1325.42,1598.65,1326.65,1601.83Z"/><path class="cls-46" d="M1357.27,1543.65a56.89,56.89,0,0,0,3.56,5.38,18,18,0,0,1,1.63,2.91,21.3,21.3,0,0,1,1,3.21c.51,2.15.81,4.32,1.11,6.45s.54,4.34.65,6.53a61.86,61.86,0,0,1-.76,13.18,65.06,65.06,0,0,1-9.42,24.59,59.41,59.41,0,0,1-8.27,10.29,55,55,0,0,1-10.32,8.17,25.45,25.45,0,0,1-6.07,2.66,14.24,14.24,0,0,1-6.52.35c4.37,0,8.2-2.11,11.5-4.64a51.79,51.79,0,0,0,4.77-4.12c.75-.74,1.52-1.45,2.24-2.23s1.43-1.52,2.12-2.32a67.92,67.92,0,0,0,7.33-10.16,69.93,69.93,0,0,0,5.46-11.25,72.48,72.48,0,0,0,4.83-24.48c.06-2.11,0-4.16-.14-6.33s-.18-4.26-.43-6.34a18.18,18.18,0,0,0-.55-3,20.53,20.53,0,0,0-1.14-2.9A40.2,40.2,0,0,1,1357.27,1543.65Z"/></g></g></svg>